<svg width="52" height="30" viewBox="0 0 52 30" fill="none" xmlns="http://www.w3.org/2000/svg">
<path fill-rule="evenodd" clip-rule="evenodd" d="M2.45799 16.3866L25.7143 0L35.0735 6.64916C24.3908 4.53782 13.4244 9.20168 2.45799 16.3866Z" fill="#111111"/>
<path fill-rule="evenodd" clip-rule="evenodd" d="M48.7185 16.355L37.0273 8.03568C31.4811 6.64913 26.187 7.53148 20.7038 8.3193C32.2689 9.04409 41.4706 11.5966 48.7185 16.355Z" fill="#111111"/>
<path fill-rule="evenodd" clip-rule="evenodd" d="M39.9895 12.0063C43.1723 13.1723 46.0714 14.6218 48.7185 16.355C44.6849 13.708 41.2185 11.313 37.0588 9.39076C31.0084 8.19328 25.3361 8.06723 20.7353 8.31933C27.3529 8.72899 33.8445 9.70588 39.9895 12.0063Z" fill="#111111"/>
<path fill-rule="evenodd" clip-rule="evenodd" d="M38.1303 12.9832C31.5756 10.6513 25.3677 9.86348 18.9391 9.39079C15.0945 10.7143 11.9118 12.3845 8.06723 14.6849C17.7416 11.5967 27.7626 10.8719 38.1303 12.9832Z" fill="#111111"/>
<path fill-rule="evenodd" clip-rule="evenodd" d="M9.86344 14.1176C15.6933 12.4474 21.6176 11.6596 27.6681 11.7856C31.166 11.8487 34.6639 12.2583 38.0987 12.9516C32.2059 11.5335 26.2815 10.6197 20.1681 10.8718C15.126 11.7856 11.4706 13.1722 8.09873 14.6218C8.69747 14.4642 9.2647 14.3066 9.86344 14.1176Z" fill="#111111"/>
<path fill-rule="evenodd" clip-rule="evenodd" d="M2.45799 16.3866L25.7143 0L35.0735 6.64916C24.3908 4.53782 13.4244 9.20168 2.45799 16.3866Z" fill="#111111"/>
<path fill-rule="evenodd" clip-rule="evenodd" d="M2.55252 16.3235L2.86765 16.103C9.86345 11.5021 16.9538 7.05883 24.9265 3.90757C28.4244 4.50631 31.7332 5.45169 34.979 6.64917C24.3277 4.60085 13.4559 9.20169 2.55252 16.3235Z" fill="#111111"/>
<path fill-rule="evenodd" clip-rule="evenodd" d="M25.7143 0L24.895 3.90756C28.2038 4.41177 31.6072 5.45168 35.0735 6.68067L25.7143 0Z" fill="#111111"/>
<path fill-rule="evenodd" clip-rule="evenodd" d="M37.0904 9.4223L37.0588 8.06726C32.3319 6.83827 26.25 7.24793 20.7353 8.35087C25.8088 8.22482 32.458 8.44541 37.0904 9.4223Z" fill="#111111"/>
<path fill-rule="evenodd" clip-rule="evenodd" d="M7.87815 14.7795C11.1555 12.7311 14.7794 10.9034 18.9391 9.39079L20.1996 10.9034C16.1029 11.5967 11.8487 12.9832 7.87815 14.7795Z" fill="#111111"/>
<path d="M3.4979 17.458C3.46639 17.458 3.46639 17.458 3.43487 17.4895C3.43487 17.521 3.40336 17.521 3.37185 17.584C3.34034 17.6471 3.30882 17.7101 3.27731 17.8046L1.16597 23.6975C1.10294 23.8551 1.03992 24.0126 0.976891 24.1072C0.913866 24.2332 0.819328 24.3277 0.72479 24.4223C0.630252 24.5168 0.504202 24.5483 0.346639 24.5798C0.315126 24.5798 0.252101 24.5798 0.220588 24.5798C0.157563 24.5798 0.12605 24.5798 0.0945378 24.5798C0.0630252 24.5798 0.0630252 24.5798 0.0315126 24.5798C0 24.6114 0 24.6429 0 24.6429C0 24.6744 0 24.6744 0.0315126 24.7059C0.0630252 24.7374 0.0945378 24.7374 0.157563 24.7374C0.283613 24.7374 0.378151 24.7374 0.504202 24.7374C0.630252 24.7374 0.72479 24.7374 0.819328 24.7374C0.913866 24.7374 1.0084 24.7374 1.07143 24.7374C1.13445 24.7374 1.19748 24.7374 1.22899 24.7374C1.2605 24.7374 1.29202 24.7374 1.35504 24.7374C1.41807 24.7374 1.48109 24.7374 1.54412 24.7374C1.60714 24.7374 1.70168 24.7374 1.76471 24.7374C1.82773 24.7374 1.89076 24.7374 1.95378 24.7374C1.98529 24.7374 2.01681 24.7374 2.04832 24.7059C2.07983 24.7059 2.07983 24.6744 2.07983 24.6429C2.07983 24.6114 2.07983 24.6114 2.04832 24.6114C2.01681 24.6114 2.01681 24.6114 1.98529 24.6114H1.92227C1.85924 24.6114 1.79622 24.6114 1.76471 24.5798C1.70168 24.5483 1.67017 24.5483 1.63866 24.4853C1.60714 24.4538 1.57563 24.3908 1.57563 24.3277C1.57563 24.2332 1.57563 24.1387 1.60714 24.0441C1.63866 23.9496 1.67017 23.8235 1.70168 23.6975L2.26891 22.0273C2.26891 21.9958 2.30042 21.9958 2.30042 21.9643C2.30042 21.9328 2.33193 21.9328 2.36345 21.9328H4.41177C4.44328 21.9328 4.44328 21.9328 4.47479 21.9328L4.5063 21.9643L5.38866 24.2962C5.38866 24.3277 5.42017 24.3277 5.42017 24.3593C5.42017 24.3908 5.42017 24.3908 5.42017 24.4223C5.42017 24.4538 5.42017 24.4853 5.38866 24.5168C5.32563 24.5799 5.32563 24.5798 5.32563 24.5798C5.29412 24.5798 5.29412 24.5798 5.29412 24.6114L5.26261 24.6429C5.26261 24.6744 5.29412 24.6744 5.32563 24.6744C5.35714 24.6744 5.45168 24.7059 5.54622 24.7059C5.70378 24.7059 5.86135 24.7059 6.05042 24.7059C6.20798 24.7059 6.36555 24.7059 6.4916 24.7059C6.61765 24.7059 6.7437 24.7059 6.83824 24.7059C6.93277 24.7059 6.9958 24.7059 7.02731 24.7059C7.09034 24.7059 7.12185 24.7059 7.15336 24.6744C7.18488 24.6744 7.21639 24.6429 7.21639 24.6114C7.21639 24.5798 7.21639 24.5798 7.18487 24.5798C7.18487 24.5798 7.15336 24.5798 7.12185 24.5798C7.09034 24.5798 7.02731 24.5798 6.96429 24.5798C6.90126 24.5798 6.83824 24.5483 6.7437 24.5483C6.71219 24.5483 6.64916 24.5168 6.58614 24.4853C6.52311 24.4538 6.46008 24.3908 6.39706 24.3277C6.33403 24.2647 6.27101 24.1387 6.17647 24.0126C6.08193 23.8866 6.01891 23.6975 5.92437 23.5084C5.86135 23.3193 5.76681 23.0988 5.67227 22.8782C5.57773 22.6576 5.48319 22.374 5.35714 22.0904C5.23109 21.8067 5.13656 21.4916 5.0105 21.208C4.88445 20.8929 4.78992 20.6093 4.66387 20.2941C4.53782 19.979 4.44328 19.6954 4.34874 19.4118C4.2542 19.1282 4.15966 18.9076 4.06513 18.687C3.97059 18.4664 3.90756 18.2773 3.84454 18.1198C3.78151 17.9937 3.75 17.8992 3.71849 17.8361C3.68698 17.7416 3.65546 17.6786 3.62395 17.6156C3.59244 17.584 3.59244 17.521 3.56093 17.521C3.52941 17.458 3.52941 17.458 3.4979 17.458ZM2.4895 21.6177C2.45798 21.5862 2.45798 21.6177 2.4895 21.6177C2.45798 21.5862 2.45798 21.5862 2.45798 21.5546L3.27731 19.0021C3.27731 18.9706 3.30882 18.9391 3.30882 18.9391C3.30882 18.9076 3.34034 18.9076 3.34034 18.9076C3.37185 18.9076 3.37185 18.9076 3.37185 18.9391C3.37185 18.9706 3.40336 18.9706 3.40336 19.0336L4.28572 21.5862C4.28572 21.6177 4.28572 21.6177 4.28572 21.6177C4.28572 21.6177 4.28571 21.6492 4.2542 21.6492H2.4895V21.6177ZM9.39076 21.5231L10.2101 18.9706C10.2416 18.8446 10.3046 18.8446 10.3361 18.9706L11.2185 21.5231L11.3761 21.9958L12.2584 24.3277C12.2899 24.3908 12.2899 24.4538 12.2899 24.5168C12.2899 24.5483 12.2584 24.5798 12.2269 24.5798C12.1954 24.5798 12.1954 24.5798 12.1954 24.6114C12.1954 24.6429 12.1639 24.6429 12.1639 24.6429C12.1639 24.6744 12.1954 24.6744 12.2269 24.6744C12.2584 24.6744 12.3529 24.7059 12.4475 24.7059C12.605 24.7059 12.7626 24.7059 12.9517 24.7059C13.1092 24.7059 13.2668 24.7059 13.3929 24.7059C13.5189 24.7059 13.645 24.7059 13.7395 24.7059C13.834 24.7059 13.8971 24.7059 13.9286 24.7059C13.9916 24.7059 14.0231 24.7059 14.0546 24.6744C14.0861 24.6744 14.1176 24.6429 14.1176 24.6114C14.1176 24.5798 14.1176 24.5798 14.0861 24.5798C14.0861 24.5798 14.0546 24.5798 14.0231 24.5798C13.9916 24.5798 13.9286 24.5798 13.8655 24.5798C13.8025 24.5798 13.7395 24.5483 13.645 24.5483C13.6134 24.5483 13.5504 24.5168 13.4874 24.4853C13.4244 24.4538 13.3613 24.3908 13.2983 24.3277C13.2353 24.2647 13.1723 24.1387 13.0777 24.0126C12.9832 23.8866 12.9202 23.6975 12.8256 23.5084C12.7626 23.3193 12.6681 23.0988 12.5735 22.8782C12.479 22.6576 12.3845 22.374 12.2584 22.0904C12.1324 21.8067 12.0378 21.4916 11.9118 21.208C11.7857 20.8929 11.6912 20.6093 11.5651 20.2941C11.4391 19.979 11.3445 19.6954 11.25 19.4118C11.1555 19.1282 11.0609 18.9076 10.9664 18.687C10.8719 18.4664 10.8088 18.2773 10.7458 18.1198C10.6828 17.9937 10.6513 17.8992 10.6197 17.8361C10.5882 17.7416 10.5567 17.6786 10.5252 17.6156C10.4937 17.584 10.4937 17.521 10.4622 17.521C10.4307 17.521 10.4307 17.4895 10.3992 17.4895C10.3676 17.4895 10.3676 17.4895 10.3361 17.521C10.3361 17.5525 10.3046 17.5525 10.2731 17.6156C10.2416 17.6786 10.2101 17.7416 10.1786 17.8361L8.03572 23.6975C7.97269 23.8551 7.90966 24.0126 7.84664 24.1072C7.78361 24.2332 7.68908 24.3277 7.59454 24.4223C7.5 24.4853 7.37395 24.5483 7.2479 24.5798C7.21639 24.5798 7.15336 24.5798 7.12185 24.5798C7.05882 24.5798 7.02731 24.5798 6.9958 24.5798C6.96429 24.5798 6.96429 24.5798 6.93277 24.5798C6.90126 24.5798 6.90126 24.6114 6.90126 24.6114C6.90126 24.6429 6.90126 24.6429 6.93277 24.6744C6.96429 24.7059 6.9958 24.7059 7.05882 24.7059C7.18487 24.7059 7.27941 24.7059 7.40546 24.7059C7.53151 24.7059 7.62605 24.7059 7.72059 24.7059C7.81513 24.7059 7.90966 24.7059 7.97269 24.7059C8.03572 24.7059 8.09874 24.7059 8.13025 24.7059C8.16177 24.7059 8.19328 24.7059 8.2563 24.7059C8.31933 24.7059 8.38235 24.7059 8.44538 24.7059C8.5084 24.7059 8.60294 24.7059 8.66597 24.7059C8.72899 24.7059 8.79202 24.7059 8.85504 24.7059C8.88656 24.7059 8.91807 24.7059 8.94958 24.6744C8.98109 24.6744 8.98109 24.6429 8.98109 24.6114C8.98109 24.5798 8.98109 24.5798 8.94958 24.5798C8.91807 24.5798 8.91807 24.5798 8.88656 24.5798H8.79202C8.72899 24.5798 8.66597 24.5799 8.63445 24.5483C8.57143 24.5168 8.53992 24.5168 8.5084 24.4538C8.47689 24.4223 8.44538 24.3593 8.44538 24.2962C8.44538 24.2017 8.44538 24.1072 8.47689 24.0126C8.5084 23.9181 8.53992 23.792 8.57143 23.666L9.39076 21.5231ZM15.7878 20.3256V21.9958C15.7878 22.3109 15.7878 22.5946 15.7878 22.8467C15.7878 23.0988 15.7878 23.3509 15.7878 23.5399C15.7878 23.7605 15.7563 23.9181 15.7563 24.0441C15.7563 24.1387 15.7248 24.2017 15.7248 24.2962C15.7248 24.3908 15.6933 24.4223 15.6618 24.4853C15.6303 24.5168 15.5672 24.5798 15.5042 24.5798C15.4412 24.5798 15.3782 24.5798 15.3466 24.5798C15.3151 24.5798 15.2521 24.5798 15.2206 24.5798C15.1891 24.5798 15.1891 24.5798 15.1576 24.6114C15.1261 24.6429 15.1261 24.6429 15.1261 24.6429C15.1261 24.6744 15.1261 24.6744 15.1576 24.7059C15.1891 24.7374 15.2206 24.7374 15.2836 24.7374C15.3466 24.7374 15.4412 24.7374 15.5357 24.7374C15.6303 24.7374 15.7248 24.7374 15.8193 24.7374C15.9139 24.7374 16.0084 24.7374 16.0714 24.7374C16.1345 24.7374 16.1975 24.7374 16.1975 24.7374C16.229 24.7374 16.2605 24.7374 16.3235 24.7374C16.3866 24.7374 16.4811 24.7374 16.6071 24.7374C16.7017 24.7374 16.8277 24.7374 16.9223 24.7689C17.0168 24.8004 17.1429 24.7689 17.2374 24.7689C17.3319 24.7689 17.395 24.7689 17.458 24.7689C17.7731 24.7689 18.0567 24.7374 18.3403 24.6429C18.5924 24.5483 18.813 24.4538 19.0336 24.3277C19.2227 24.2017 19.3803 24.0441 19.5063 23.8551C19.6324 23.666 19.7269 23.5084 19.7899 23.2878C19.8529 23.0672 19.8529 22.9097 19.8529 22.6891C19.8529 22.4055 19.8214 22.1534 19.7269 21.9328C19.6324 21.7122 19.5378 21.5231 19.3803 21.3971C19.2227 21.2395 19.0651 21.1135 18.8761 21.0189C18.687 20.9244 18.4979 20.8614 18.3088 20.7983C18.1197 20.7353 17.8992 20.7038 17.7101 20.6723C17.521 20.6408 17.3319 20.6408 17.1744 20.6408C17.0168 20.6408 16.8592 20.6408 16.7647 20.6093C16.6702 20.5777 16.6071 20.6093 16.5756 20.5777C16.5441 20.5777 16.5441 20.5462 16.5441 20.5462C16.5441 20.5462 16.5126 20.5147 16.5126 20.4832V18.2458C16.5126 18.0883 16.5441 17.9622 16.6071 17.8677C16.6702 17.7731 16.7332 17.7416 16.8592 17.7101C16.9223 17.7101 16.9538 17.6786 16.9853 17.6786C17.0168 17.6786 17.0483 17.6786 17.0798 17.6786C17.1113 17.6786 17.1113 17.6786 17.1429 17.6471L17.1744 17.6156C17.1744 17.584 17.1744 17.584 17.1429 17.5525C17.1113 17.521 17.0798 17.521 17.0168 17.521C16.9538 17.521 16.8592 17.521 16.7647 17.521C16.6702 17.521 16.5756 17.521 16.4811 17.521C16.3866 17.521 16.292 17.521 16.229 17.521C16.166 17.521 16.1345 17.521 16.1029 17.521C16.1029 17.521 16.0399 17.521 15.9769 17.521C15.9139 17.521 15.8193 17.521 15.7248 17.521C15.6303 17.521 15.5357 17.521 15.4097 17.521C15.3151 17.521 15.2206 17.521 15.1261 17.521C15.0945 17.521 15.0315 17.521 15 17.5525C14.9685 17.5525 14.9685 17.584 14.9685 17.6156C14.9685 17.6471 14.9685 17.6471 15 17.6471L15.0315 17.6786C15.063 17.6786 15.0945 17.6786 15.1576 17.6786C15.2206 17.6786 15.2521 17.6786 15.3151 17.7101C15.4097 17.7416 15.5042 17.7731 15.5672 17.8677C15.6303 17.9622 15.6618 18.0883 15.6933 18.2458L15.7878 20.3256ZM16.5441 21.0819C16.5441 21.0504 16.5441 21.0189 16.5756 20.9874C16.6071 20.9559 16.6387 20.9559 16.6702 20.9559C16.7962 20.9559 16.9538 20.9559 17.0798 20.9559C17.2059 20.9559 17.3004 20.9559 17.4265 20.9559C17.5525 20.9559 17.6471 20.9874 17.7731 21.0189C17.8992 21.0504 17.9937 21.1135 18.1513 21.208C18.3403 21.3341 18.4664 21.4601 18.5924 21.6177C18.7185 21.7752 18.813 21.9328 18.8761 22.1219C18.9391 22.3109 19.0021 22.4685 19.0336 22.6261C19.0651 22.7836 19.0651 22.9412 19.0651 23.0988C19.0651 23.3193 19.0336 23.5084 18.9706 23.6345C18.9076 23.792 18.8445 23.9181 18.75 24.0126C18.6555 24.1072 18.5294 24.2017 18.4349 24.2332C18.3088 24.2962 18.2143 24.3277 18.0882 24.3593C17.9622 24.3908 17.8676 24.3908 17.7731 24.3908C17.7101 24.3908 17.6471 24.3908 17.5525 24.3908C17.458 24.3908 17.3634 24.3593 17.2374 24.3593C17.1429 24.3277 17.0168 24.2962 16.9538 24.2647C16.8592 24.2332 16.7962 24.1702 16.7332 24.1072C16.7017 24.0441 16.6702 23.9811 16.6387 23.8866C16.6387 23.792 16.6071 23.666 16.6071 23.5084C16.6071 23.4769 16.6071 23.4139 16.6071 23.3193C16.6071 23.2248 16.6071 23.0988 16.6071 22.9412C16.6071 22.7836 16.6071 22.6261 16.6071 22.4685C16.6071 22.3109 16.6071 22.1219 16.6071 21.9643C16.6071 21.8067 16.6071 21.6492 16.6071 21.4916V21.0819H16.5441ZM25.9979 21.6807C26.0294 21.6807 26.0294 21.6807 26.0294 21.7122C26.0609 21.7122 26.0609 21.7437 26.0609 21.7752V21.9958C26.0609 22.3109 26.0609 22.5946 26.0609 22.8467C26.0609 23.0988 26.0609 23.3509 26.0609 23.5399C26.0609 23.7605 26.0294 23.9181 26.0294 24.0441C26.0294 24.1387 25.9979 24.2017 25.9979 24.2962C25.9664 24.3593 25.9349 24.4223 25.9034 24.4853C25.8719 24.5483 25.7773 24.5798 25.6828 24.5798C25.6513 24.5798 25.5882 24.5798 25.5252 24.6114C25.4622 24.6114 25.4307 24.6114 25.3677 24.6114C25.3046 24.6114 25.2731 24.6114 25.2416 24.6114C25.2101 24.6114 25.2101 24.6114 25.1786 24.6429C25.1471 24.6744 25.1471 24.6744 25.1471 24.6744C25.1471 24.6744 25.1471 24.7059 25.1786 24.7374C25.2101 24.7374 25.2416 24.7689 25.3046 24.7689C25.4307 24.7689 25.5567 24.7689 25.7143 24.7689C25.8403 24.7689 25.9664 24.7689 26.0609 24.7689C26.187 24.7689 26.2815 24.7689 26.3445 24.7689C26.4076 24.7689 26.4706 24.7689 26.4706 24.7689C26.4706 24.7689 26.5021 24.7689 26.5651 24.7689C26.6282 24.7689 26.6912 24.7689 26.7857 24.7689C26.8803 24.7689 26.9748 24.7689 27.0693 24.7689C27.1639 24.7689 27.2584 24.7689 27.3214 24.7689C27.3845 24.7689 27.416 24.7689 27.4475 24.7374C27.479 24.7374 27.479 24.7059 27.479 24.6744C27.479 24.6429 27.479 24.6429 27.4475 24.6429C27.4475 24.6429 27.416 24.6114 27.3845 24.6114C27.3529 24.6114 27.2899 24.6114 27.2584 24.6114C27.2269 24.6114 27.1639 24.5798 27.1324 24.5798C27.0693 24.5798 27.0063 24.5483 27.0063 24.4853C26.9748 24.4538 26.9433 24.3908 26.9118 24.2962C26.8803 24.2017 26.8803 24.1387 26.8803 24.0441C26.8487 23.9181 26.8487 23.729 26.8487 23.5399C26.8487 23.3509 26.8172 23.0988 26.8172 22.8467C26.8172 22.5946 26.8172 22.3109 26.8172 21.9958V20.3256C26.8172 20.042 26.8172 19.7899 26.8172 19.5693C26.8172 19.3488 26.8172 19.1912 26.8172 19.0651C26.8172 18.9391 26.8172 18.813 26.8172 18.7185C26.8172 18.624 26.8172 18.5609 26.8172 18.4979C26.8172 18.4349 26.8172 18.3719 26.8172 18.3088C26.8172 18.2143 26.8487 18.1198 26.8487 18.0567C26.8803 17.9937 26.9118 17.9307 26.9748 17.8677C27.0378 17.8361 27.1008 17.8046 27.1954 17.7731C27.2269 17.7731 27.2584 17.7731 27.2899 17.7416C27.3214 17.7416 27.3845 17.7416 27.416 17.7416C27.4475 17.7416 27.479 17.7416 27.5105 17.7416C27.542 17.7416 27.542 17.7416 27.5735 17.7101L27.605 17.6786C27.605 17.6471 27.605 17.6471 27.5735 17.6156C27.542 17.584 27.5105 17.584 27.4475 17.584C27.3529 17.584 27.2269 17.584 27.1008 17.584C26.9748 17.584 26.8803 17.584 26.7857 17.584C26.6597 17.584 26.5966 17.584 26.5336 17.584C26.4706 17.584 26.4076 17.584 26.4076 17.584C26.4076 17.584 26.3445 17.584 26.2815 17.584C26.2185 17.584 26.124 17.584 26.0294 17.5525C25.9349 17.5525 25.8088 17.521 25.7143 17.521C25.6198 17.521 25.4937 17.4895 25.3992 17.4895C25.3046 17.4895 25.2416 17.4895 25.1786 17.4895C24.958 17.4895 24.7374 17.521 24.4853 17.5525C24.2647 17.584 24.0441 17.6786 23.8235 17.7731C23.6029 17.8677 23.4454 17.9937 23.2563 18.1513C23.0987 18.3088 22.9727 18.4979 22.8782 18.75C22.7836 19.0021 22.7521 19.2542 22.7521 19.5378C22.7521 19.6954 22.7836 19.8845 22.8466 20.0735C22.9097 20.2626 23.0042 20.4202 23.1303 20.5777C23.2563 20.7353 23.3824 20.8929 23.5714 21.0189C23.7605 21.145 23.9181 21.271 24.1387 21.334C23.9496 21.6492 23.792 21.9643 23.6029 22.2794C23.4139 22.563 23.2563 22.8467 23.0672 23.0988C22.8782 23.3509 22.7206 23.603 22.563 23.792C22.4055 23.9811 22.2479 24.1072 22.0903 24.2017C21.9328 24.2962 21.8382 24.3593 21.7122 24.4223C21.5861 24.4538 21.4916 24.4853 21.4286 24.4853C21.334 24.4853 21.271 24.5168 21.2395 24.5168C21.208 24.5168 21.1765 24.5168 21.145 24.5168C21.1134 24.5168 21.1134 24.5168 21.0819 24.5483C21.0504 24.5483 21.0504 24.5798 21.0504 24.5798C21.0504 24.6114 21.0819 24.6114 21.0819 24.6429C21.1134 24.6744 21.1765 24.6744 21.271 24.6744H21.8698C22.0588 24.6744 22.1849 24.6744 22.3109 24.6744C22.437 24.6429 22.5315 24.6429 22.6261 24.6114C22.7206 24.5798 22.8151 24.5483 22.8782 24.5168C23.0042 24.4223 23.1303 24.2962 23.2878 24.1702C23.4454 24.0441 23.5399 23.8551 23.6975 23.666C23.8235 23.4769 23.9811 23.2563 24.1387 23.0042L24.958 21.6807H25.9979ZM26.0609 18.1198V21.0819C26.0294 21.1765 25.9664 21.2395 25.9349 21.271C25.9034 21.3025 25.8403 21.3341 25.7458 21.3656C25.6828 21.3656 25.5567 21.3656 25.4307 21.3656C25.1786 21.3656 24.9265 21.3025 24.7059 21.208C24.4853 21.1135 24.2962 20.9874 24.1071 20.7983C23.9496 20.6093 23.792 20.3887 23.6975 20.1681C23.6029 19.916 23.5714 19.6324 23.5714 19.3488C23.5714 19.0967 23.6029 18.8761 23.666 18.7185C23.729 18.5609 23.792 18.4034 23.9181 18.3088C24.0126 18.2143 24.1387 18.1198 24.2332 18.0567C24.3277 17.9937 24.4853 17.9622 24.6113 17.9307C24.7374 17.8992 24.8319 17.8992 24.9265 17.8992C24.9895 17.8992 25.084 17.8992 25.1786 17.9307C25.2731 17.9622 25.3992 17.9622 25.4937 17.9622C25.5882 17.9937 25.6828 17.9937 25.7773 17.9937C25.8719 18.0252 25.9034 18.0252 25.9349 18.0252C25.9664 18.0252 25.9664 18.0567 25.9979 18.0567C26.0294 18.0567 26.0609 18.0882 26.0609 18.1198ZM36.0819 20.3256C36.0819 20.042 36.0819 19.7899 36.0819 19.5693C36.0819 19.3488 36.0819 19.1912 36.0819 19.0651C36.0819 18.9391 36.0819 18.813 36.0819 18.7185C36.0819 18.624 36.0819 18.5609 36.0819 18.4979C36.0819 18.4349 36.0819 18.3719 36.0819 18.3088C36.0819 18.1513 36.1135 18.0252 36.1765 17.9307C36.2395 17.8361 36.3025 17.8046 36.4286 17.7731C36.4916 17.7731 36.5231 17.7416 36.5546 17.7416C36.5861 17.7416 36.6177 17.7416 36.6492 17.7416C36.6807 17.7416 36.6807 17.7416 36.7122 17.7101L36.7437 17.6786C36.7437 17.6471 36.7437 17.6471 36.7122 17.6156C36.6807 17.584 36.6492 17.584 36.5861 17.584C36.5231 17.584 36.4286 17.584 36.334 17.584C36.2395 17.584 36.145 17.584 36.0504 17.584C35.9559 17.584 35.8613 17.584 35.7983 17.584C35.7353 17.584 35.7038 17.584 35.6723 17.584C35.6723 17.584 35.6092 17.584 35.5462 17.584C35.4832 17.584 35.3887 17.584 35.2941 17.584C35.1681 17.584 35.0735 17.584 34.9475 17.584C34.8214 17.584 34.7269 17.584 34.6008 17.584C34.5693 17.584 34.5063 17.584 34.4748 17.6156C34.4433 17.6156 34.4433 17.6471 34.4433 17.6786C34.4433 17.7101 34.4433 17.7101 34.4748 17.7101L34.5063 17.7416C34.5378 17.7416 34.5693 17.7416 34.6008 17.7416C34.6324 17.7416 34.6954 17.7416 34.7269 17.7416C34.7584 17.7416 34.7899 17.7416 34.8214 17.7731C34.916 17.8046 35.0105 17.8361 35.042 17.8677C35.105 17.8992 35.1366 17.9622 35.1681 18.0567C35.1996 18.1198 35.1996 18.2143 35.1996 18.3088C35.1996 18.3719 35.1996 18.4349 35.1996 18.4979C35.1996 18.5609 35.1996 18.6555 35.1996 18.75C35.1996 18.8446 35.1996 18.9706 35.1996 19.1282C35.1996 19.2857 35.1996 19.4433 35.1996 19.6639C35.1996 19.8845 35.1996 20.1366 35.1996 20.4202V20.6093C35.1996 20.6408 35.1996 20.6408 35.1681 20.6408C35.1366 20.6408 35.1366 20.6408 35.1366 20.6408H31.1975L31.166 20.6093V20.4202C31.166 20.1366 31.166 19.8845 31.166 19.6639C31.166 19.4433 31.166 19.2857 31.166 19.1282C31.166 18.9706 31.166 18.8446 31.166 18.75C31.166 18.6555 31.166 18.5609 31.166 18.4979C31.166 18.4349 31.166 18.3719 31.166 18.3088C31.166 18.1513 31.1975 18.0252 31.2605 17.9307C31.3235 17.8361 31.3866 17.8046 31.5126 17.7731C31.5756 17.7731 31.6071 17.7416 31.6387 17.7416C31.6702 17.7416 31.7017 17.7416 31.7332 17.7416C31.7647 17.7416 31.7647 17.7416 31.7962 17.7101L31.8277 17.6786C31.8277 17.6471 31.8277 17.6471 31.7962 17.6156C31.7647 17.584 31.7332 17.584 31.6702 17.584C31.6071 17.584 31.5126 17.584 31.4181 17.584C31.3235 17.584 31.229 17.584 31.1345 17.584C31.0399 17.584 30.9454 17.584 30.8824 17.584C30.8193 17.584 30.7878 17.584 30.7563 17.584C30.7563 17.584 30.6933 17.584 30.6303 17.584C30.5672 17.584 30.4727 17.584 30.3782 17.584C30.2521 17.584 30.1576 17.584 30.0315 17.584C29.9055 17.584 29.8109 17.584 29.6849 17.584C29.6534 17.584 29.5903 17.584 29.5588 17.6156C29.5273 17.6156 29.5273 17.6471 29.5273 17.6786C29.5273 17.7101 29.5273 17.7101 29.5588 17.7101L29.5903 17.7416C29.6219 17.7416 29.6534 17.7416 29.6849 17.7416C29.7164 17.7416 29.7794 17.7416 29.8109 17.7416C29.8424 17.7416 29.874 17.7416 29.9055 17.7731C30 17.8046 30.0945 17.8361 30.1261 17.8677C30.1891 17.8992 30.2206 17.9622 30.2521 18.0567C30.2836 18.1198 30.2836 18.2143 30.2836 18.3088C30.2836 18.3719 30.2836 18.4349 30.2836 18.4979C30.2836 18.5609 30.2836 18.624 30.2836 18.7185C30.2836 18.813 30.2836 18.9391 30.2836 19.0651C30.2836 19.1912 30.2836 19.3803 30.2836 19.5693C30.2836 19.7584 30.2836 20.0105 30.2836 20.3256V21.9958C30.2836 22.3109 30.2836 22.5946 30.2836 22.8467C30.2836 23.0988 30.2836 23.3509 30.2836 23.5399C30.2836 23.7605 30.2521 23.9181 30.2521 24.0441C30.2521 24.1387 30.2206 24.2017 30.2206 24.2962C30.2206 24.3908 30.1891 24.4223 30.1576 24.4853C30.1261 24.5168 30.063 24.5798 30 24.5798C29.9685 24.5798 29.9055 24.6114 29.874 24.6114C29.8424 24.6114 29.7794 24.6114 29.7479 24.6114C29.7164 24.6114 29.7164 24.6114 29.6849 24.6429C29.6534 24.6744 29.6534 24.6744 29.6534 24.6744C29.6534 24.7059 29.6534 24.7059 29.6849 24.7374C29.7164 24.7689 29.7479 24.7689 29.8109 24.7689C29.874 24.7689 29.9685 24.7689 30.063 24.7689C30.1576 24.7689 30.2521 24.7689 30.3466 24.7689C30.4412 24.7689 30.5357 24.7689 30.5987 24.7689C30.6618 24.7689 30.7248 24.7689 30.7248 24.7689C30.7563 24.7689 30.7878 24.7689 30.8508 24.7689C30.9139 24.7689 31.0084 24.7689 31.1345 24.7689C31.2605 24.7689 31.355 24.7689 31.4811 24.7689C31.6071 24.7689 31.7332 24.7689 31.8908 24.7689C31.9538 24.7689 31.9853 24.7689 32.0168 24.7374C32.0483 24.7059 32.0483 24.7059 32.0483 24.6744C32.0483 24.6429 32.0483 24.6429 32.0168 24.6429C32.0168 24.6429 31.9853 24.6114 31.9538 24.6114C31.9223 24.6114 31.8908 24.6114 31.8277 24.6114C31.7647 24.6114 31.7332 24.6114 31.6702 24.6114C31.6071 24.6114 31.5756 24.6114 31.5126 24.5798C31.4181 24.5798 31.355 24.5483 31.292 24.4853C31.2605 24.4538 31.1975 24.3908 31.1975 24.2962C31.1975 24.2017 31.166 24.1387 31.166 24.0441C31.1345 23.9181 31.1345 23.729 31.1345 23.5399C31.1345 23.3509 31.1029 23.0988 31.1029 22.8467C31.1029 22.5946 31.1029 22.3109 31.1029 21.9958V21.1135C31.1029 21.0819 31.1029 21.0819 31.1345 21.0819C31.166 21.0819 31.166 21.0819 31.166 21.0819H35.1681C35.1996 21.0819 35.1996 21.0819 35.1996 21.0819L35.2311 21.1135V21.9958C35.2311 22.3109 35.2311 22.5946 35.2311 22.8467C35.2311 23.0988 35.2311 23.3509 35.2311 23.5399C35.2311 23.7605 35.1996 23.9181 35.1996 24.0441C35.1996 24.1387 35.1681 24.2017 35.1681 24.2962C35.1681 24.3908 35.1366 24.4223 35.105 24.4853C35.0735 24.5168 35.0105 24.5798 34.9475 24.5798C34.916 24.5798 34.8529 24.6114 34.8214 24.6114C34.7899 24.6114 34.7269 24.6114 34.6954 24.6114C34.6639 24.6114 34.6639 24.6114 34.6324 24.6429C34.6008 24.6744 34.6008 24.6744 34.6008 24.6744C34.6008 24.7059 34.6008 24.7059 34.6324 24.7374C34.6639 24.7689 34.6954 24.7689 34.7584 24.7689C34.8214 24.7689 34.916 24.7689 35.0105 24.7689C35.105 24.7689 35.1996 24.7689 35.2941 24.7689C35.3887 24.7689 35.4832 24.7689 35.5462 24.7689C35.6092 24.7689 35.6723 24.7689 35.6723 24.7689C35.7038 24.7689 35.7353 24.7689 35.7983 24.7689C35.8613 24.7689 35.9559 24.7689 36.0819 24.7689C36.208 24.7689 36.3025 24.7689 36.4286 24.7689C36.5546 24.7689 36.6807 24.7689 36.8382 24.7689C36.9013 24.7689 36.9328 24.7689 36.9643 24.7374C36.9958 24.7059 36.9958 24.7059 36.9958 24.6744C36.9958 24.6429 36.9958 24.6429 36.9643 24.6429C36.9643 24.6429 36.9328 24.6114 36.9013 24.6114C36.8698 24.6114 36.8382 24.6114 36.7752 24.6114C36.7122 24.6114 36.6807 24.6114 36.6176 24.6114C36.5546 24.6114 36.5231 24.6114 36.4601 24.5798C36.3656 24.5798 36.3025 24.5483 36.2395 24.4853C36.208 24.4538 36.145 24.3908 36.145 24.2962C36.145 24.2017 36.1134 24.1387 36.1134 24.0441C36.0819 23.9181 36.0819 23.729 36.0819 23.5399C36.0819 23.3509 36.0504 23.0988 36.0504 22.8467C36.0504 22.5946 36.0504 22.3109 36.0504 21.9958V20.3256H36.0819ZM42.9517 24.8635C43.1092 24.8635 43.2668 24.8635 43.4244 24.8635C43.5819 24.8635 43.7395 24.832 43.8971 24.832C44.0546 24.8004 44.1807 24.8004 44.3067 24.7689C44.4328 24.7374 44.5588 24.7059 44.6534 24.6744C44.7164 24.6429 44.7479 24.6429 44.7794 24.6114C44.8109 24.5798 44.8424 24.5799 44.8424 24.5483C44.8424 24.5168 44.874 24.4853 44.874 24.4223C44.9055 24.3593 44.9055 24.2647 44.937 24.1702C44.9685 24.0756 44.9685 23.9811 45 23.8551C45.0315 23.729 45.0315 23.6345 45.0315 23.5399C45.063 23.4454 45.063 23.3824 45.063 23.3193C45.063 23.2563 45.063 23.1933 45.063 23.1933C45.063 23.1618 45.063 23.1303 45.0315 23.0988C45.0315 23.0672 45 23.0672 45 23.0672C45 23.0672 44.9685 23.0672 44.937 23.0988C44.9055 23.1303 44.9055 23.1618 44.9055 23.2248C44.9055 23.2563 44.874 23.3193 44.874 23.3824C44.8424 23.4454 44.8424 23.5084 44.8109 23.603C44.7794 23.6975 44.7479 23.7605 44.7164 23.8235C44.6849 23.8866 44.6219 23.9496 44.5903 24.0126C44.4643 24.1387 44.3067 24.2332 44.1492 24.2962C43.9916 24.3593 43.8025 24.4223 43.6134 24.4223C43.3929 24.4538 43.2038 24.4538 42.9517 24.4538C42.542 24.4538 42.1639 24.3908 41.8172 24.2647C41.4706 24.1387 41.1555 23.9811 40.8719 23.7605C40.5882 23.5399 40.3677 23.2878 40.1471 23.0042C39.9265 22.7206 39.8004 22.4055 39.6744 22.0588C39.5483 21.7122 39.5168 21.3656 39.5168 21.0189C39.5168 20.6723 39.5483 20.3572 39.6113 20.042C39.6744 19.7269 39.7689 19.4433 39.895 19.1912C40.021 18.9391 40.2101 18.687 40.4307 18.4979C40.6513 18.3088 40.9349 18.1513 41.313 18.0567C41.6597 17.9307 42.0693 17.8992 42.5735 17.8992C42.7941 17.8992 43.0462 17.9307 43.2668 17.9307C43.4874 17.9622 43.708 18.0252 43.8971 18.0883C44.0861 18.1513 44.2752 18.2458 44.4013 18.3719C44.5273 18.4979 44.6534 18.624 44.7479 18.7815C44.8424 18.9391 44.874 19.1597 44.874 19.3803C44.874 19.4433 44.874 19.5063 44.874 19.5378C44.874 19.5693 44.9055 19.5693 44.937 19.5693C44.9685 19.5693 44.9685 19.5378 45 19.5063C45.0315 19.4748 45.0315 19.4118 45.0315 19.3172C45.0315 19.2227 45.0315 19.0967 45.0315 18.9706C45.0315 18.7815 45.0315 18.624 45.063 18.4664C45.0945 18.3088 45.0945 18.1828 45.0945 18.0883C45.0945 17.9937 45.1261 17.9307 45.1261 17.8677C45.1261 17.8361 45.1261 17.8046 45.0945 17.8046C45.063 17.7731 45.0315 17.7731 45 17.7731C44.9055 17.7731 44.7794 17.7416 44.6534 17.7416C44.4958 17.7101 44.3382 17.6786 44.1492 17.6471C43.9601 17.6156 43.7395 17.584 43.4874 17.5525C43.2353 17.521 42.9832 17.521 42.6996 17.521C42.1954 17.521 41.7542 17.584 41.3761 17.6786C40.9664 17.7731 40.6513 17.9307 40.3677 18.1198C40.084 18.3088 39.8319 18.5294 39.6113 18.75C39.4223 18.9706 39.2647 19.2542 39.1387 19.5063C39.0126 19.7899 38.9181 20.042 38.855 20.3256C38.792 20.6093 38.7605 20.8614 38.7605 21.1135C38.7605 21.5546 38.8235 21.9643 38.9181 22.3425C39.0126 22.7206 39.2017 23.0672 39.4223 23.3824C39.6429 23.6975 39.9265 23.9811 40.2731 24.2017C40.6198 24.4223 40.9979 24.6114 41.4706 24.7374C41.9433 24.8635 42.3845 24.8635 42.9517 24.8635Z" fill="#111111"/>
<path d="M48.4979 21.6807H46.4496V21.1135H48.4979V19.0336H49.1282V21.1135H51.1765V21.6807H49.1282V23.7605H48.4979V21.6807Z" fill="#111111"/>
<path d="M1.79622 29.2122V27.416L0.63025 29.2122H0.315124V27.1009H0.567225V28.8971L1.73319 27.1009H2.04832V29.2122H1.79622Z" fill="#111111"/>
<path d="M4.85294 29.2122V28.2353H3.65547V29.2122H3.40337V27.1009H3.65547V27.9832H4.85294V27.1009H5.10504V29.2122H4.85294Z" fill="#111111"/>
<path d="M7.27941 27.3215V29.2122H7.02731V27.3215H6.2395V27.1009H8.06723V27.3215H7.27941Z" fill="#111111"/>
<path d="M10.0525 29.2752C9.45378 29.2752 9.07563 28.8341 9.07563 28.1723C9.07563 27.5105 9.48529 27.0378 10.0525 27.0378C10.6828 27.0378 10.9664 27.5421 10.9664 28.1408V28.2038H9.32773C9.32773 28.645 9.51681 29.0547 10.0525 29.0547C10.3992 29.0547 10.6197 28.8656 10.6828 28.4874H10.9349C10.8403 28.9601 10.5252 29.2752 10.0525 29.2752ZM10.021 27.2584C9.54832 27.2584 9.39076 27.6051 9.32773 28.0147H10.7143C10.6828 27.5421 10.4307 27.2584 10.021 27.2584Z" fill="#111111"/>
<path d="M12.4475 27.5105C12.605 27.1954 12.8571 27.0378 13.2038 27.0378C13.771 27.0378 14.1492 27.479 14.1492 28.1723C14.1492 28.8341 13.771 29.2752 13.2038 29.2752C12.8571 29.2752 12.605 29.1177 12.4475 28.8341V30H12.1954V27.1009H12.416V27.5105H12.4475ZM12.4475 28.1408C12.4475 28.708 12.7311 29.0231 13.1723 29.0231C13.6134 29.0231 13.8971 28.6765 13.8971 28.1408C13.8971 27.5736 13.6134 27.2269 13.1723 27.2269C12.7311 27.2269 12.4475 27.5736 12.4475 28.1408Z" fill="#111111"/>
<path d="M16.8908 29.2122V28.2353H15.6933V29.2122H15.4412V27.1009H15.6933V27.9832H16.8908V27.1009H17.1429V29.2122H16.8908Z" fill="#111111"/>
<path d="M19.3487 29.2752C18.75 29.2752 18.3718 28.8341 18.3718 28.1723C18.3718 27.5105 18.7815 27.0378 19.3487 27.0378C19.979 27.0378 20.2626 27.5421 20.2626 28.1408V28.2038H18.6239C18.6239 28.645 18.813 29.0547 19.3487 29.0547C19.6954 29.0547 19.916 28.8656 19.979 28.4874H20.2311C20.1681 28.9601 19.8529 29.2752 19.3487 29.2752ZM19.3487 27.2584C18.876 27.2584 18.7185 27.6051 18.6555 28.0147H20.0105C20.0105 27.5421 19.7269 27.2584 19.3487 27.2584Z" fill="#111111"/>
<path d="M22.3109 27.3215V29.2122H22.0588V27.3215H21.271V27.1009H23.0987V27.3215H22.3109Z" fill="#111111"/>
<path d="M25.2416 28.2038H24.2017V27.9517H25.2416V28.2038Z" fill="#111111"/>
<path d="M28.4559 29.1807C28.3929 29.2122 28.3298 29.2122 28.2353 29.2122C27.9832 29.2122 27.9517 29.0231 27.9517 28.8341C27.7941 29.1177 27.5105 29.2437 27.1639 29.2437C26.7227 29.2437 26.4706 29.0231 26.4706 28.645C26.4706 28.2668 26.7227 28.0463 27.2584 27.9832C27.605 27.9517 27.7626 27.9517 27.8887 27.8572C27.9517 27.8257 27.9517 27.7626 27.9517 27.6681C27.9517 27.3215 27.7311 27.2269 27.416 27.2269C27.0693 27.2269 26.8803 27.3845 26.8487 27.7311H26.5966C26.6282 27.2899 26.9118 27.0378 27.4475 27.0378C27.9202 27.0378 28.2353 27.2584 28.2353 27.6366V28.771C28.2353 28.8971 28.2353 28.9916 28.3613 28.9916C28.3929 28.9916 28.4244 28.9916 28.4559 28.9916V29.1807ZM27.3845 28.2038C27.1324 28.2353 26.7542 28.2984 26.7542 28.645C26.7542 28.8971 26.9433 29.0547 27.2269 29.0547C27.605 29.0547 27.9517 28.8026 27.9517 28.3929V28.0463C27.8887 28.1408 27.6681 28.1723 27.3845 28.2038Z" fill="#111111"/>
<path d="M29.9055 27.3215V29.2122H29.6534V27.1009H31.0399V27.3215H29.9055Z" fill="#111111"/>
<path d="M32.9937 29.2752C32.395 29.2752 32.0168 28.8341 32.0168 28.1723C32.0168 27.5105 32.4265 27.0378 32.9937 27.0378C33.624 27.0378 33.9076 27.5421 33.9076 28.1408V28.2038H32.2689C32.2689 28.645 32.4895 29.0547 32.9937 29.0547C33.3403 29.0547 33.5609 28.8656 33.624 28.4874H33.8761C33.813 28.9601 33.4979 29.2752 32.9937 29.2752ZM32.9622 27.2584C32.4895 27.2584 32.3319 27.6051 32.2689 28.0147H33.624C33.624 27.5421 33.3719 27.2584 32.9622 27.2584Z" fill="#111111"/>
<path d="M36.5861 29.2122V28.2353H35.3887V29.2122H35.1366V27.1009H35.3887V27.9832H36.5861V27.1009H36.8382V29.2122H36.5861Z" fill="#111111"/>
<path d="M39.0126 27.3215V29.2122H38.7605V27.3215H37.9727V27.1009H39.8004V27.3215H39.0126Z" fill="#111111"/>
<path d="M41.7857 29.2752C41.187 29.2752 40.8088 28.8341 40.8088 28.1723C40.8088 27.479 41.187 27.0378 41.7857 27.0378C42.2584 27.0378 42.605 27.3215 42.6366 27.7626H42.3845C42.3214 27.416 42.1008 27.2584 41.7857 27.2584C41.3445 27.2584 41.0609 27.6051 41.0609 28.1723C41.0609 28.7395 41.3445 29.0862 41.7542 29.0862C42.1008 29.0862 42.3529 28.8656 42.3845 28.4874H42.6366C42.605 28.9286 42.3214 29.2752 41.7857 29.2752Z" fill="#111111"/>
<path d="M44.7164 27.3215V29.2122H44.4643V27.3215H43.6765V27.1009H45.5042V27.3215H44.7164Z" fill="#111111"/>
<path d="M47.6156 29.2122H46.6387V27.1009H47.6156C48.0567 27.1009 48.2773 27.29 48.2773 27.6051C48.2773 27.8572 48.1513 28.0148 47.8992 28.0778C48.1828 28.1408 48.3403 28.2984 48.3403 28.6135C48.3719 28.9917 48.0882 29.2122 47.6156 29.2122ZM47.584 27.3215H46.8908V28.0148H47.584C47.8677 28.0148 48.0252 27.8887 48.0252 27.6681C48.0252 27.416 47.8992 27.3215 47.584 27.3215ZM47.584 28.2038H46.8908V28.9917H47.584C47.9307 28.9917 48.1198 28.8656 48.1198 28.582C48.1198 28.3299 47.9307 28.2038 47.584 28.2038Z" fill="#111111"/>
<path d="M51.5231 28.1408C51.5231 28.8341 51.145 29.2437 50.5462 29.2437C49.916 29.2437 49.5378 28.8026 49.5378 28.1408C49.5378 27.479 49.916 27.0378 50.5462 27.0378C51.145 27.0378 51.5231 27.479 51.5231 28.1408ZM49.7899 28.1408C49.7899 28.708 50.0735 29.0547 50.5462 29.0547C50.9874 29.0547 51.271 28.708 51.271 28.1723C51.271 27.6366 50.9874 27.2584 50.5462 27.2584C50.0735 27.2584 49.7899 27.6051 49.7899 28.1408Z" fill="#111111"/>
</svg>
