<svg width="8" height="14" viewBox="0 0 8 14" fill="none" xmlns="http://www.w3.org/2000/svg">
<path d="M3.3442 9.86105C2.31137 9.74786 1.38013 9.48056 0.582835 8.8253C0.483906 8.74378 0.381767 8.66519 0.291489 8.57413C-0.0574832 8.22194 -0.0926456 7.81858 0.183491 7.4029C0.41972 7.04719 0.816274 6.95204 1.22845 7.15628C1.30827 7.19587 1.38431 7.24528 1.45715 7.29836C2.94304 8.37121 4.98427 8.40083 6.47574 7.3466C6.62351 7.22754 6.78146 7.13048 6.96453 7.08092C7.32047 6.98488 7.65242 7.12227 7.84344 7.44953C8.06168 7.82327 8.05888 8.18807 7.79 8.47824C7.37754 8.9231 6.8815 9.24494 6.33035 9.46957C5.80919 9.68188 5.23836 9.78876 4.67339 9.85973C4.75865 9.95724 4.79883 10.0052 4.85213 10.0615C5.61929 10.8714 6.38979 11.678 7.15443 12.4905C7.41494 12.7673 7.46936 13.1105 7.32592 13.4325C7.16908 13.7844 6.81802 14.0159 6.47379 13.9911C6.2557 13.9753 6.08561 13.8612 5.93449 13.7013C5.35557 13.0891 4.76576 12.4883 4.19856 11.8645C4.03349 11.6831 3.9541 11.7175 3.80842 11.8749C3.22601 12.505 2.63411 13.1253 2.03872 13.7422C1.77138 14.0192 1.45324 14.069 1.1432 13.9108C0.813623 13.7429 0.603904 13.3894 0.62009 13.0341C0.631253 12.7938 0.743716 12.6102 0.900691 12.4456C1.65989 11.649 2.417 10.8503 3.17438 10.0524C3.22448 9.99932 3.27122 9.94301 3.3442 9.86105Z" fill="white"/>
<path d="M3.97335 7.08619C2.13082 7.07959 0.619951 5.4745 0.630695 3.53526C0.641299 1.57461 2.15314 -0.00541115 4.01382 1.39287e-05C5.87826 0.00529238 7.37476 1.60804 7.36541 3.58907C7.35592 5.52436 5.83459 7.09294 3.97335 7.08619ZM5.64789 3.53995C5.64468 2.57707 4.91492 1.81052 4.00042 1.80964C3.07825 1.80862 2.34193 2.5891 2.34905 3.56077C2.35588 4.51998 3.09192 5.28111 4.00893 5.27759C4.92316 5.27422 5.65096 4.50268 5.64789 3.53995Z" fill="white"/>
</svg>
