<svg width="14" height="14" viewBox="0 0 14 14" fill="none" xmlns="http://www.w3.org/2000/svg">
<path d="M9.41781 6.93314C9.33834 5.32015 8.18926 4.34996 6.80161 4.34996H6.74937C5.14807 4.34996 4.26015 5.66243 4.26015 7.15342C4.26015 8.82252 5.33434 9.87696 6.74332 9.87696C8.31371 9.87696 9.34659 8.67768 9.42133 7.25937L9.41781 6.93314ZM6.75715 2.90613C7.82708 2.90613 8.8332 3.39911 9.5717 4.17104V4.17392C9.5717 3.80349 9.811 3.5241 10.1431 3.5241L10.2272 3.52351C10.7465 3.52351 10.8534 4.03594 10.8534 4.19804L10.8558 9.95901C10.8191 10.3363 11.2293 10.5312 11.4566 10.2889C12.3443 9.33822 13.4059 5.40154 10.9049 3.12114C8.57402 0.994616 5.44643 1.34489 3.78312 2.53996C2.01474 3.81106 0.883475 6.62471 1.98247 9.26717C3.18064 12.1492 6.60892 13.0088 8.6466 12.1513C9.67838 11.7172 10.1548 13.1709 9.08321 13.6459C7.46425 14.3646 2.95748 14.2921 0.852359 10.4909C-0.570027 7.92452 -0.494655 3.4088 3.27803 1.06934C6.1638 -0.720931 9.96876 -0.225429 12.263 2.27197C14.6612 4.88276 14.5211 9.77193 12.1823 11.6724C11.1224 12.5361 9.54809 11.6959 9.55802 10.4375L9.54724 10.0262C8.80928 10.7894 7.82706 11.2347 6.75713 11.2347C4.64318 11.2347 2.78304 9.29648 2.78304 7.09271C2.78304 4.86775 4.6432 2.90613 6.75715 2.90613Z" fill="white"/>
</svg>
