<svg width="14" height="14" viewBox="0 0 14 14" fill="none" xmlns="http://www.w3.org/2000/svg">
<path d="M10.1364 0H3.86341C1.73313 0 0 1.73321 0 3.86349V10.1365C0 12.2669 1.73313 14 3.86341 14H10.1364C12.2669 14 14 12.2668 14 10.1365V3.86349C14.0001 1.73321 12.2669 0 10.1364 0ZM12.7579 10.1365C12.7579 11.582 11.582 12.7579 10.1365 12.7579H3.86341C2.41805 12.7579 1.24215 11.582 1.24215 10.1365V3.86349C1.24215 2.41813 2.41805 1.24215 3.86341 1.24215H10.1364C11.5819 1.24215 12.7579 2.41813 12.7579 3.86349V10.1365H12.7579Z" fill="white"/>
<path d="M7 3.39272C5.01082 3.39272 3.39255 5.01099 3.39255 7.00017C3.39255 8.98926 5.01082 10.6074 7 10.6074C8.98918 10.6074 10.6074 8.98926 10.6074 7.00017C10.6074 5.01099 8.98918 3.39272 7 3.39272ZM7 9.36522C5.69583 9.36522 4.6347 8.30426 4.6347 7.00008C4.6347 5.69583 5.69574 4.63479 7 4.63479C8.30426 4.63479 9.3653 5.69583 9.3653 7.00008C9.3653 8.30426 8.30417 9.36522 7 9.36522Z" fill="white"/>
<path d="M10.7587 2.33946C10.5194 2.33946 10.2843 2.43635 10.1153 2.60611C9.94546 2.77504 9.84783 3.01022 9.84783 3.25037C9.84783 3.48977 9.94555 3.72487 10.1153 3.89463C10.2842 4.06356 10.5194 4.16128 10.7587 4.16128C10.9989 4.16128 11.2332 4.06356 11.403 3.89463C11.5728 3.72487 11.6696 3.48969 11.6696 3.25037C11.6696 3.01022 11.5728 2.77504 11.403 2.60611C11.2341 2.43635 10.9989 2.33946 10.7587 2.33946Z" fill="white"/>
</svg>
