<svg width="18" height="18" viewBox="0 0 18 18" fill="none" xmlns="http://www.w3.org/2000/svg">
<path d="M17.65 14.3129L13.8806 11.8001C13.5382 11.5723 13.0781 11.647 12.8254 11.9714L11.7277 13.3825C11.492 13.6888 11.0678 13.7768 10.7297 13.5895C9.98485 13.1752 9.10409 12.7851 7.16075 10.8393C5.2174 8.89347 4.82481 8.0152 4.4105 7.27039C4.22329 6.93226 4.31129 6.50811 4.6175 6.27235L6.02862 5.17468C6.353 4.92198 6.42771 4.4619 6.19993 4.11952L3.6871 0.350073C3.45447 0.00111644 2.9888 -0.103648 2.62915 0.112033L1.0529 1.05765C0.626918 1.30863 0.313784 1.71391 0.178364 2.18946C-0.252683 3.76103 -0.339588 7.22785 5.21645 12.7839C10.7725 18.3399 14.239 18.2527 15.8106 17.8216C16.2861 17.6863 16.6914 17.3731 16.9424 16.9471L17.888 15.3709C18.1037 15.0112 17.999 14.5456 17.65 14.3129Z" fill="#70C8D3"/>
</svg>
