<svg width="18" height="15" viewBox="0 0 18 15" fill="none" xmlns="http://www.w3.org/2000/svg">
<path d="M16.3927 15C16.7973 15 17.1479 14.8583 17.446 14.5785L12.3463 9.16958C12.2239 9.2625 12.1053 9.35287 11.9933 9.43879C11.6117 9.73701 11.3019 9.96972 11.0641 10.1365C10.8263 10.3036 10.5099 10.474 10.1149 10.6479C9.71966 10.822 9.35146 10.9088 9.00989 10.9088H8.98989C8.64828 10.9088 8.28008 10.8221 7.88488 10.6479C7.48968 10.474 7.17327 10.3036 6.93568 10.1365C6.69787 9.96972 6.38829 9.73704 6.00646 9.43879C5.90005 9.35605 5.78205 9.26528 5.65446 9.16812L0.553796 14.5785C0.851805 14.8583 1.20263 15 1.6072 15H16.3927Z" fill="#70C8D3"/>
<path d="M1.01462 5.76356C0.633012 5.49373 0.294611 5.18469 0 4.8366V13.0659L4.49484 8.29863C3.59562 7.6328 2.43702 6.78875 1.01462 5.76356Z" fill="#70C8D3"/>
<path d="M16.9955 5.76356C15.6274 6.7457 14.4646 7.59121 13.507 8.30054L18 13.0661V4.8366C17.7119 5.17769 17.3772 5.48652 16.9955 5.76356Z" fill="#70C8D3"/>
<path d="M16.3927 0H1.60724C1.09142 0 0.694843 0.18474 0.41703 0.55384C0.138988 0.923114 0.00019608 1.38493 0.00019608 1.93877C0.00019608 2.38613 0.184381 2.87086 0.552587 3.39309C0.920793 3.91511 1.31259 4.32515 1.72779 4.6234C1.95541 4.79397 2.64182 5.30008 3.78703 6.14157C4.40524 6.59593 4.94285 6.99196 5.40485 7.33372C5.79865 7.62473 6.13826 7.87674 6.41865 8.08588C6.45084 8.10983 6.50146 8.14824 6.56865 8.19919C6.64104 8.25433 6.73264 8.32431 6.84565 8.41086C7.06327 8.57779 7.24405 8.71272 7.38804 8.8158C7.53183 8.91891 7.70605 9.03409 7.91043 9.16199C8.11465 9.28971 8.30726 9.38576 8.48805 9.44964C8.66887 9.51348 8.83626 9.54551 8.99024 9.54551H9.01025C9.1642 9.54551 9.33162 9.51348 9.51247 9.44964C9.69323 9.38576 9.88568 9.28992 10.0901 9.16199C10.2942 9.03409 10.4682 8.91867 10.6125 8.8158C10.7565 8.71272 10.9373 8.57782 11.1549 8.41086C11.2677 8.32431 11.3593 8.2543 11.4317 8.19936C11.4989 8.1482 11.5495 8.11004 11.5819 8.08588C11.8003 7.92468 12.1407 7.6737 12.5983 7.33666C13.4311 6.723 14.6575 5.81978 16.2828 4.6234C16.7716 4.2613 17.1799 3.82434 17.5081 3.31313C17.8358 2.80192 18 2.26569 18 1.7046C18 1.23582 17.8407 0.834695 17.5229 0.500602C17.2048 0.166925 16.828 0 16.3927 0Z" fill="#70C8D3"/>
</svg>
