<svg width="7" height="14" viewBox="0 0 7 14" fill="none" xmlns="http://www.w3.org/2000/svg">
<path d="M0.223506 7.4564H1.7425V13.7742C1.7425 13.8989 1.84254 14 1.96601 14H4.54152C4.66498 14 4.76502 13.8989 4.76502 13.7742V7.48616H6.51124C6.62478 7.48616 6.7203 7.40008 6.73327 7.28614L6.99848 4.96025C7.00577 4.89625 6.9857 4.83217 6.94332 4.78416C6.9009 4.73611 6.84019 4.70861 6.77649 4.70861H4.76511V3.25062C4.76511 2.81111 4.99935 2.58824 5.46138 2.58824C5.52723 2.58824 6.77649 2.58824 6.77649 2.58824C6.89996 2.58824 7 2.48712 7 2.36243V0.227477C7 0.102742 6.89996 0.00167097 6.77649 0.00167097H4.96408C4.95129 0.00103871 4.92291 0 4.88107 0C4.5666 0 3.47351 0.0623677 2.61006 0.864884C1.65337 1.7542 1.78635 2.81901 1.81814 3.00363V4.70856H0.223506C0.100041 4.70856 0 4.80963 0 4.93437V7.23055C0 7.35528 0.100041 7.4564 0.223506 7.4564Z" fill="white"/>
</svg>
