<svg width="42" height="44" viewBox="0 0 42 44" fill="none" xmlns="http://www.w3.org/2000/svg">
<g clip-path="url(#clip0)">
<path d="M35.7773 0H41.9996V10.6207H35.7773V0Z" fill="#E88020"/>
<path d="M9.11772 0C9.11772 0 6 0 6 3.03448V44H34.9565V43.9478C35.2158 43.9838 35.477 44.0009 35.7391 44C38.8568 44 38.8696 40.9655 38.8696 40.9655L38.8735 15.931V3.03448C38.8725 1.35983 40.2724 0.000948275 42 0H9.11772Z" fill="#FBBB48"/>
<path d="M27.0768 6.11627H24.2515L22.556 3.08179L20.8604 6.11627H18.0352L20.2956 8.54386L19.1649 11.7111L22.556 9.89041L25.9471 11.7111L24.8164 8.54386L27.0768 6.11627Z" fill="#E31E25"/>
<path d="M12 27H18V33H12V27Z" fill="#479BA6"/>
<path d="M30.8333 33H22.1667C21.5221 33 21 32.5525 21 32C21 31.4475 21.5221 31 22.1667 31H30.8333C31.4779 31 32 31.4475 32 32C32 32.5525 31.4779 33 30.8333 33Z" fill="#29676F"/>
<path d="M30.8333 29H22.1667C21.5221 29 21 28.5525 21 28C21 27.4475 21.5221 27 22.1667 27H30.8333C31.4779 27 32 27.4475 32 28C32 28.5525 31.4779 29 30.8333 29Z" fill="#29676F"/>
<path d="M12 17H18V23H12V17Z" fill="#479BA6"/>
<path d="M30.8333 23H22.1667C21.5221 23 21 22.5525 21 22C21 21.4475 21.5221 21 22.1667 21H30.8333C31.4779 21 32 21.4475 32 22C32 22.5525 31.4779 23 30.8333 23Z" fill="#29676F"/>
<path d="M30.8333 19H22.1667C21.5221 19 21 18.5525 21 18C21 17.4475 21.5221 17 22.1667 17H30.8333C31.4779 17 32 17.4475 32 18C32 18.5525 31.4779 19 30.8333 19Z" fill="#29676F"/>
<path d="M32.667 40.9656H0.000290134C0.000290134 40.9656 -0.092071 44.0001 3.01904 44.0001H35.7781C34.0602 44.0001 32.667 42.6412 32.667 40.9656Z" fill="#E88020"/>
</g>
<defs>
<clipPath id="clip0">
<rect width="42" height="44" fill="white"/>
</clipPath>
</defs>
</svg>
