<svg width="158" height="119" viewBox="0 0 158 119" fill="none" xmlns="http://www.w3.org/2000/svg">
<path d="M27.7424 89.8384C28.4994 89.9446 29.2477 89.9489 29.9876 89.8516C30.7274 89.7542 31.3898 89.5507 31.9747 89.2408C32.5596 88.9311 33.0242 88.5239 33.3682 88.0194C33.7124 87.5149 33.8758 86.9174 33.8587 86.227C33.8414 85.8022 33.6866 85.4569 33.3941 85.1913C33.1015 84.9259 32.6542 84.7931 32.0521 84.7931C30.9855 84.7931 30.0993 84.9171 29.394 85.1649L27.7424 89.8384ZM23.9745 82.5625C23.5959 82.3855 23.269 82.1289 22.9937 81.7925C22.7185 81.4562 22.6583 80.987 22.8131 80.3852C23.1916 79.854 23.7207 79.3407 24.4002 78.845C25.0799 78.3494 25.8584 77.9067 26.7358 77.5173C27.6133 77.1278 28.5553 76.8136 29.5618 76.5746C30.5682 76.3356 31.6049 76.2162 32.6715 76.2162C34.3576 76.2162 35.6479 76.5126 36.5427 77.1058C37.4372 77.6987 37.8761 78.4467 37.8588 79.3496C37.8415 80.1993 37.5664 80.9605 37.0329 81.6332C36.4997 82.3058 35.6221 82.8989 34.4006 83.4123C35.3985 83.5008 36.1081 83.8283 36.5297 84.3947C36.9513 84.9613 37.1447 85.625 37.1104 86.3862C37.0759 87.2715 36.8094 88.0459 36.3104 88.7098C35.8113 89.3736 35.1706 89.9224 34.3876 90.3561C33.605 90.7898 32.7317 91.1173 31.7683 91.3386C30.8047 91.5599 29.8327 91.6529 28.8521 91.6175C27.8369 91.5819 26.8949 91.4846 26.0261 91.3253C25.1572 91.1659 24.4734 90.9446 23.9745 90.6616L27.7939 79.9337H31.2522L29.9617 83.5451C30.5295 83.4564 31.0886 83.2928 31.6392 83.0538C32.1897 82.8149 32.6801 82.5315 33.1102 82.2041C33.5404 81.8766 33.8887 81.5093 34.1554 81.1021C34.4221 80.6949 34.5727 80.27 34.607 79.8276C34.6415 79.1548 34.4393 78.6238 34.0006 78.2343C33.5618 77.8449 32.9037 77.6501 32.0264 77.6501C31.166 77.6501 30.3531 77.7741 29.5875 78.0218C28.8219 78.2697 28.1036 78.6149 27.4327 79.0574C26.7617 79.5 26.1379 80.0223 25.5615 80.6241C24.9853 81.226 24.4562 81.8722 23.9745 82.5625ZM46.0396 83.8903C45.902 83.6778 45.7687 83.4964 45.6396 83.3459C45.5107 83.1954 45.2912 83.1202 44.9815 83.1202C44.4138 83.1202 43.8805 83.3238 43.3816 83.731C42.8826 84.138 42.4525 84.6471 42.0912 85.2577C41.7298 85.8685 41.4588 86.5191 41.2782 87.2095C41.0976 87.8999 41.033 88.5371 41.0847 89.1213C41.1191 89.5285 41.2224 89.8251 41.3944 90.0109C41.5664 90.1968 41.8418 90.2986 42.2201 90.3162C42.6331 90.334 43.0719 90.2233 43.5364 89.9844C44.0008 89.7453 44.4483 89.4489 44.8784 89.0948C45.3086 88.7408 45.6912 88.3514 46.0268 87.9264C46.3623 87.5015 46.6247 87.1122 46.8139 86.7581C47.0893 86.8466 47.2914 87.0147 47.4203 87.2626C47.5494 87.5104 47.5451 87.7318 47.4075 87.9264C47.0978 88.3691 46.7495 88.8116 46.3623 89.2541C45.9752 89.6967 45.5321 90.0906 45.0332 90.4357C44.5343 90.781 43.9665 91.0598 43.33 91.2722C42.6934 91.4846 41.9793 91.5909 41.1879 91.5909C40.7751 91.5909 40.3793 91.5245 40.0008 91.3918C39.6222 91.2589 39.2824 91.0598 38.9814 90.7942C38.6803 90.5286 38.4438 90.2057 38.2717 89.8251C38.0996 89.4444 38.0136 89.0151 38.0136 88.5371C38.0136 87.6167 38.1985 86.7403 38.5684 85.9084C38.9384 85.0763 39.4417 84.346 40.0782 83.7176C40.7148 83.0891 41.4503 82.5891 42.2847 82.2174C43.1192 81.8456 44.0008 81.6598 44.9299 81.6598C45.3772 81.6598 45.803 81.7129 46.2075 81.8192C46.6118 81.9253 46.8999 82.0491 47.0719 82.1909C46.8827 82.4741 46.7064 82.7529 46.5429 83.0273C46.3795 83.3016 46.2117 83.5894 46.0396 83.8903ZM51.8205 83.3858C51.9926 83.1555 52.2205 82.9343 52.5044 82.7218C52.7882 82.5094 53.1023 82.3325 53.4464 82.1909C53.7904 82.0491 54.1431 81.9341 54.5044 81.8456C54.8657 81.7572 55.2184 81.7129 55.5625 81.7129C55.941 81.7129 56.298 81.766 56.6336 81.8722C56.969 81.9785 57.2444 82.1289 57.4593 82.3235C57.6744 82.5182 57.825 82.7662 57.9109 83.0671C57.9971 83.368 57.9884 83.7132 57.8851 84.1027L55.9496 89.5197C55.8637 89.7676 55.855 89.9446 55.9238 90.0508C55.9926 90.157 56.0959 90.2101 56.2335 90.2101C56.6292 90.2101 57.0464 89.9401 57.4853 89.4001C57.9239 88.8603 58.5303 88.1388 59.3046 87.2361C59.4938 87.3246 59.6185 87.4574 59.6788 87.6344C59.7391 87.8114 59.7003 88.015 59.5627 88.2451C59.1841 88.8116 58.8229 89.3073 58.4787 89.7321C58.1347 90.157 57.7733 90.511 57.3949 90.7942C57.0163 91.0775 56.612 91.2899 56.1818 91.4315C55.7519 91.5731 55.2701 91.6439 54.7367 91.6439C54.3065 91.6439 53.9239 91.5643 53.5883 91.405C53.2528 91.2457 52.9904 91.0199 52.8012 90.728C52.6119 90.4357 52.5044 90.0817 52.4785 89.6657C52.4529 89.2497 52.5345 88.7851 52.7237 88.2716C52.8785 87.8468 53.0163 87.4618 53.1367 87.1166C53.2572 86.7713 53.3774 86.4306 53.4979 86.0942C53.6184 85.7578 53.7431 85.417 53.8722 85.072C54.0012 84.7267 54.1431 84.3417 54.298 83.9168C54.384 83.722 54.3755 83.5627 54.2722 83.4388C54.1689 83.3148 54.0485 83.253 53.9109 83.253C53.7904 83.253 53.6227 83.2971 53.4076 83.3858C53.1925 83.4742 52.9689 83.5982 52.7366 83.7575C52.5044 83.9168 52.285 84.1071 52.0785 84.3284C51.8721 84.5497 51.7087 84.7931 51.5883 85.0587L49.3687 91.3519H46.0395L49.1882 81.8456H52.285L51.8205 83.3858ZM66.5048 81.8987C66.6425 81.7572 66.7973 81.5978 66.9694 81.4208C67.1413 81.2437 67.2962 81.0933 67.4339 80.9693C67.6748 81.1109 68.0102 81.2702 68.4404 81.4473C68.8705 81.6242 69.3007 81.7129 69.7306 81.7129C69.9372 81.7129 70.1781 81.6952 70.4533 81.6598C70.7287 81.6242 70.9868 81.5801 71.2275 81.5269C71.0899 81.8456 70.9265 82.1378 70.7372 82.4033C70.5479 82.6687 70.1952 82.9166 69.6791 83.1467C69.5071 83.2352 69.279 83.2971 68.9953 83.3327C68.7113 83.368 68.4662 83.368 68.2596 83.3327C68.3113 84.1115 68.2425 84.9789 68.0532 85.9349C67.864 86.8909 67.5329 87.7938 67.0597 88.6434C66.5865 89.4931 65.9628 90.2057 65.1887 90.781C64.4144 91.3563 63.4681 91.6439 62.3498 91.6439C61.782 91.6439 61.2831 91.5422 60.8531 91.3386C60.4228 91.135 60.0616 90.8695 59.7691 90.542C59.4766 90.2145 59.2573 89.8384 59.1111 89.4135C58.9648 88.9887 58.883 88.5548 58.8659 88.1124C58.8313 87.0325 59.0121 86.0721 59.4078 85.2313C59.8035 84.3904 60.3542 83.7 61.0595 83.16C61.7649 82.6201 62.5865 82.2395 63.5241 82.0182C64.4618 81.7969 65.4552 81.7572 66.5048 81.8987ZM66.1692 83.0671C64.9133 83.1555 63.9156 83.6203 63.1757 84.4611C62.4359 85.302 62.0487 86.4749 62.0144 87.9795C61.9971 88.493 62.1132 88.9267 62.3628 89.2807C62.6122 89.6347 62.9348 89.8117 63.3305 89.8117C63.8294 89.8117 64.2683 89.626 64.6467 89.2541C65.0253 88.8824 65.3393 88.431 65.5887 87.8999C65.8382 87.3689 66.0273 86.8111 66.1565 86.227C66.2855 85.6429 66.3587 85.1383 66.3758 84.7133C66.393 84.4301 66.3843 84.1248 66.35 83.7974C66.3155 83.4698 66.2554 83.2264 66.1692 83.0671ZM81.602 84.7133C81.1721 85.4038 80.7031 86.1518 80.1957 86.9573C79.6881 87.7627 79.1805 88.5107 78.673 89.2011C78.1655 89.8914 77.6752 90.4668 77.202 90.927C76.7289 91.3873 76.3116 91.6175 75.9502 91.6175C75.2278 91.6175 74.7503 91.405 74.518 90.9802C74.2858 90.5553 74.3158 89.8914 74.6084 88.9887L76.3632 83.6247C75.7954 84.6337 75.2622 85.6162 74.7633 86.5722C74.2643 87.5282 73.7739 88.3778 73.2923 89.1213C72.8105 89.8649 72.333 90.458 71.8599 90.9005C71.3868 91.343 70.9006 91.5466 70.4017 91.5113C69.9372 91.4935 69.5631 91.3209 69.2792 90.9934C68.9953 90.666 68.7802 90.2764 68.634 89.8251C68.4877 89.3736 68.4102 88.9001 68.4018 88.4044C68.3931 87.9087 68.4404 87.4839 68.5437 87.1298L71.047 86.9705C70.9438 87.1298 70.8405 87.3733 70.7373 87.7007C70.6341 88.0282 70.5653 88.3602 70.5308 88.6964C70.4963 89.0328 70.5093 89.3293 70.5695 89.586C70.6298 89.8428 70.7802 89.98 71.0211 89.9977C71.2103 89.9622 71.4513 89.7764 71.7438 89.44C72.0363 89.1037 72.3502 88.6744 72.6857 88.1522C73.0212 87.6299 73.3696 87.0546 73.7309 86.4262C74.0922 85.7977 74.4319 85.1825 74.7503 84.5807C75.0686 83.9787 75.361 83.4211 75.6278 82.9078C75.8944 82.3945 76.1051 81.9961 76.2599 81.7129L80.0537 81.7394L77.7309 88.7761C77.7138 88.8293 77.7569 88.7895 77.8601 88.6567C77.9633 88.5239 78.1912 88.2052 78.5439 87.7007C78.8968 87.1962 79.3914 86.4705 80.0279 85.5233C80.6645 84.5763 81.5161 83.3148 82.5828 81.7394C82.5828 81.7394 82.5914 81.7305 82.6087 81.7129V81.7394H85.7312L83.1764 89.5993C83.0904 89.8649 83.0989 90.064 83.2022 90.1968C83.3055 90.3296 83.4776 90.334 83.7183 90.2101C83.8904 90.104 84.1011 89.9533 84.3506 89.7587C84.6001 89.564 84.8496 89.3515 85.099 89.1213C85.3485 88.8913 85.5894 88.6567 85.8217 88.4178C86.0539 88.1787 86.256 87.9707 86.4281 87.7938C86.6173 87.8999 86.7378 88.0768 86.7895 88.3247C86.8411 88.5727 86.798 88.7761 86.6603 88.9355C86.3506 89.2896 86.0153 89.6347 85.6539 89.9711C85.2926 90.3074 84.9056 90.6084 84.4926 90.874C84.0797 91.1395 83.6538 91.3563 83.2152 91.5245C82.7763 91.6926 82.3419 91.7769 81.9117 91.7769C81.4645 91.7769 81.1118 91.7105 80.8537 91.5775C80.5956 91.4449 80.4064 91.2633 80.2859 91.0333C80.1656 90.8031 80.1096 90.5286 80.1183 90.2101C80.1267 89.8914 80.1827 89.5373 80.2859 89.148L81.602 84.7133ZM87.7184 91.6706C87.1336 91.6706 86.6819 91.5422 86.3636 91.2855C86.0452 91.0289 85.8861 90.6261 85.8861 90.0773C85.8861 89.8117 85.9463 89.4311 86.0668 88.9355C86.1871 88.4398 86.342 87.8955 86.5314 87.3025C86.7206 86.7094 86.927 86.0986 87.1508 85.4702C87.3743 84.8417 87.5807 84.262 87.7701 83.731C87.9594 83.1998 88.1227 82.7529 88.2604 82.3899C88.398 82.0271 88.4755 81.8102 88.4926 81.7394L91.6669 81.766L88.9315 89.5728C88.8626 89.7676 88.8626 89.9313 88.9315 90.064C89.0002 90.1968 89.1035 90.2632 89.2411 90.2632C89.482 90.3162 89.7787 90.2366 90.1314 90.0242C90.4841 89.8117 90.8282 89.5463 91.1638 89.2276C91.4993 88.9089 91.8003 88.5681 92.067 88.2052C92.3336 87.8424 92.51 87.5371 92.596 87.2891L94.5833 81.7394L97.6801 81.766L95.0994 89.44C95.0134 89.7056 95.0219 89.9047 95.1252 90.0374C95.2283 90.1702 95.4005 90.1746 95.6413 90.0508C95.8134 89.9446 96.0241 89.794 96.2735 89.5993C96.5231 89.4047 96.7726 89.1921 97.022 88.962C97.2714 88.732 97.5123 88.4974 97.7447 88.2584C97.9769 88.0194 98.179 87.8114 98.3511 87.6344C98.5403 87.7406 98.6608 87.9175 98.7124 88.1655C98.7641 88.4134 98.7209 88.6168 98.5833 88.7761C98.2736 89.1303 97.9554 89.4755 97.6284 89.8117C97.3015 90.1481 96.9532 90.449 96.5832 90.7146C96.2134 90.9802 95.8262 91.197 95.4219 91.3651C95.0176 91.5333 94.6004 91.6175 94.1703 91.6175C93.723 91.6175 93.3702 91.5511 93.1123 91.4182C92.8542 91.2855 92.6648 91.1039 92.5445 90.874C92.424 90.6438 92.3681 90.3693 92.3767 90.0508C92.3853 89.7321 92.4412 89.378 92.5445 88.9887C91.7359 89.9446 90.9529 90.6305 90.1959 91.0466C89.4389 91.4626 88.6131 91.6706 87.7184 91.6706ZM107.022 89.5197C106.936 89.7676 106.928 89.9446 106.997 90.0508C107.065 90.157 107.169 90.2101 107.306 90.2101C108.081 90.2101 109.225 89.3249 110.739 87.5547C110.928 87.6431 111.057 87.7804 111.126 87.9662C111.195 88.1522 111.151 88.3514 110.997 88.5638C110.291 89.502 109.543 90.25 108.751 90.8076C107.96 91.3651 107.022 91.6439 105.938 91.6439C105.508 91.6439 105.13 91.5689 104.803 91.4182C104.476 91.2678 104.218 91.0466 104.029 90.7544C103.839 90.4624 103.732 90.1082 103.706 89.6923C103.68 89.2763 103.753 88.8027 103.925 88.2716L104.338 86.8642H101.861L100.364 91.3519H97.035L100.183 81.8456H103.538L102.248 85.6693H104.7L105.861 81.8456H109.293L107.022 89.5197ZM118.171 89.5993C118.12 89.7409 118.124 89.8737 118.184 89.9977C118.244 90.1216 118.369 90.1836 118.558 90.1836C118.765 90.1836 118.993 90.0729 119.242 89.8516C119.492 89.6304 119.754 89.3604 120.029 89.0417C120.305 88.7231 120.58 88.3911 120.855 88.0459C121.13 87.7007 121.388 87.3954 121.629 87.1298C121.819 87.2361 121.961 87.3954 122.055 87.6078C122.15 87.8202 122.145 88.0062 122.042 88.1655C121.801 88.5195 121.518 88.9001 121.191 89.3073C120.864 89.7144 120.494 90.0906 120.081 90.4357C119.668 90.781 119.203 91.0686 118.687 91.2989C118.171 91.5289 117.595 91.6439 116.958 91.6439C116.717 91.6439 116.472 91.6086 116.223 91.5378C115.973 91.467 115.749 91.3519 115.552 91.1926C115.354 91.0333 115.195 90.8164 115.074 90.542C114.954 90.2676 114.911 89.9269 114.945 89.5197C114.515 90.0862 114.042 90.5773 113.526 90.9934C113.01 91.4095 112.416 91.6175 111.745 91.6175C111.367 91.6175 111.018 91.5466 110.7 91.405C110.382 91.2633 110.106 91.0686 109.874 90.8209C109.642 90.573 109.461 90.2853 109.332 89.9577C109.203 89.6304 109.139 89.2896 109.139 88.9355C109.139 88.0327 109.323 87.1475 109.693 86.2801C110.063 85.4127 110.575 84.6471 111.229 83.9831C111.883 83.3194 112.657 82.7838 113.552 82.3767C114.446 81.9696 115.418 81.766 116.468 81.766C117.345 81.766 118.124 81.8545 118.803 82.0316C119.483 82.2085 120.064 82.4209 120.545 82.6687L118.171 89.5993ZM117.165 83.014C116.614 83.0316 116.055 83.2043 115.487 83.5318C114.919 83.8594 114.399 84.2929 113.926 84.8329C113.453 85.3729 113.061 85.9969 112.752 86.7049C112.442 87.4131 112.27 88.1478 112.235 88.9089C112.218 89.1568 112.266 89.3693 112.377 89.5463C112.489 89.7233 112.666 89.8117 112.907 89.8117C113.251 89.8117 113.668 89.5904 114.158 89.148C114.648 88.7053 115.091 88.1655 115.487 87.5282L117.165 83.014ZM132.468 90.0242C132.675 89.9533 132.929 89.794 133.23 89.5463C133.531 89.2984 133.832 89.0373 134.133 88.7628C134.434 88.4884 134.705 88.223 134.946 87.9662C135.187 87.7095 135.35 87.5282 135.436 87.4219C135.625 87.5105 135.772 87.6564 135.875 87.86C135.978 88.0636 135.961 88.254 135.823 88.431C135.359 88.962 134.929 89.418 134.533 89.7984C134.137 90.179 133.737 90.4933 133.333 90.7412C132.929 90.989 132.503 91.1749 132.055 91.2989C131.608 91.4226 131.109 91.4846 130.559 91.4846C129.905 91.4846 129.406 91.3209 129.062 90.9934C128.718 90.666 128.563 90.1658 128.597 89.4931C128.597 89.1213 128.709 88.6168 128.933 87.9795C129.156 87.3422 129.397 86.6962 129.655 86.0412C129.277 86.8199 128.868 87.5371 128.429 88.192C127.991 88.8471 127.518 89.418 127.01 89.9047C126.503 90.3916 125.961 90.7766 125.384 91.0598C124.808 91.343 124.21 91.4935 123.591 91.5113C123.074 91.5289 122.601 91.3962 122.171 91.1129C121.741 90.8297 121.419 90.4668 121.203 90.0242C120.988 89.5816 120.911 89.0948 120.971 88.5638C121.031 88.0327 121.285 87.5282 121.733 87.0502C121.87 86.9086 122.059 86.8067 122.3 86.7449C122.541 86.6829 122.804 86.6518 123.087 86.6518C123.371 86.6518 123.66 86.6695 123.952 86.7049C124.244 86.7403 124.511 86.7935 124.752 86.8642C124.58 86.9174 124.408 87.0369 124.236 87.2229C124.064 87.4086 123.918 87.6299 123.797 87.8866C123.677 88.1434 123.582 88.4088 123.513 88.6832C123.444 88.9576 123.419 89.2011 123.436 89.4135C123.453 89.626 123.518 89.794 123.629 89.918C123.741 90.042 123.926 90.0773 124.184 90.0242C124.666 89.918 125.1 89.7277 125.487 89.4533C125.875 89.1789 126.236 88.8513 126.571 88.4708C126.907 88.0902 127.212 87.6742 127.488 87.2229C127.763 86.7713 128.021 86.3332 128.262 85.9084C128.124 85.9792 127.991 86.0366 127.862 86.0809C127.733 86.1252 127.608 86.165 127.488 86.2005C126.799 86.4482 126.201 86.5058 125.694 86.373C125.186 86.2402 124.782 85.9836 124.481 85.6029C124.18 85.2224 123.982 84.7577 123.887 84.2089C123.793 83.6602 123.81 83.0937 123.939 82.5094C124.068 81.9253 124.318 81.3544 124.688 80.7967C125.057 80.2391 125.552 79.7656 126.171 79.376C126.997 78.845 127.741 78.544 128.404 78.4732C129.066 78.4024 129.617 78.4865 130.055 78.7255C130.494 78.9644 130.817 79.3363 131.023 79.8407C131.23 80.3453 131.299 80.9162 131.23 81.5536C131.195 81.9075 131.118 82.3191 130.997 82.7882C130.877 83.2574 130.731 83.7132 130.559 84.1557L133.681 84.1824L131.849 89.2276C131.746 89.5285 131.737 89.772 131.823 89.9577C131.909 90.1437 132.124 90.1658 132.468 90.0242ZM128.004 84.8727C128.141 84.8373 128.292 84.7843 128.455 84.7133C128.619 84.6427 128.795 84.5629 128.984 84.4744C129.208 83.9611 129.406 83.4564 129.578 82.9609C129.75 82.4651 129.857 82.0049 129.9 81.5801C129.944 81.1552 129.918 80.7879 129.823 80.478C129.729 80.1683 129.535 79.9425 129.242 79.8009C129.071 79.7301 128.873 79.7213 128.649 79.7744C128.425 79.8276 128.184 79.9691 127.926 80.1993C127.513 80.5533 127.174 81.0269 126.907 81.6198C126.64 82.2129 126.49 82.7794 126.455 83.3194C126.421 83.8594 126.52 84.2929 126.752 84.6204C126.984 84.948 127.402 85.032 128.004 84.8727Z" fill="#E31E24"/>
<path d="M34.6778 97.5147C36.7694 97.1432 38.6196 96.9574 40.4698 95.9489V94.1708C38.5659 95.2854 36.4209 95.4711 34.6778 95.7896L34.2487 95.8694C30.4948 96.7186 28.752 98.9745 28.752 104.866C28.752 110.387 30.3339 113.333 35.0532 113.333C38.6732 113.333 41.8641 110.865 41.8641 106.486C41.8641 102.664 38.834 100.647 36.0989 100.647C34.0343 100.647 32.3988 101.071 30.6825 102.717C30.8166 99.2665 32.1573 97.966 34.6778 97.5147ZM30.763 104.654C31.8087 103.274 33.5786 102.372 35.4823 102.372C38.4855 102.372 39.8263 104.415 39.8263 106.91C39.8263 109.299 38.1102 111.688 35.2409 111.688C32.5864 111.688 30.763 110.44 30.763 105.742V104.654ZM41.5959 100.408L46.8784 112.776L44.5723 118.11H46.5566L54.1182 100.408H52.134L47.9241 110.36L43.7679 100.408H41.5959ZM63.4227 111.263H56.8265C58.3013 109.777 58.7838 106.539 59.0788 102.159H63.4227V111.263ZM65.3265 112.935V116.465H66.7745L67.2035 111.263H65.407V100.408H57.2822C57.0945 106.061 56.6656 109.246 54.8153 111.263H53.6624L54.0915 116.465H55.5393V112.935H65.3265ZM67.5521 100.408L72.8346 112.776L70.5285 118.11H72.5128L80.0744 100.408H78.0901L73.8803 110.36L69.7241 100.408H67.5521ZM82.0854 112.935H97.7183V116.465H99.193L99.5952 111.263H97.7986V100.408H95.8143V111.263H90.9611V100.408H88.9768V111.263H84.0696V100.408H82.0854V112.935ZM107.881 101.602C110.294 101.602 111.769 103.168 111.903 105.238H103.322C103.752 102.611 106.057 101.602 107.881 101.602ZM107.988 99.93C104.368 99.93 101.177 102.08 101.177 106.671C101.177 111.263 104.368 113.413 107.988 113.413C110.053 113.413 111.608 112.961 112.895 112.404V110.44C111.474 111.289 109.543 111.661 108.149 111.661C105.414 111.661 103.242 110.122 103.242 106.724H113.968C113.968 102.637 111.394 99.93 107.988 99.93ZM122.629 101.602C125.042 101.602 126.517 103.168 126.651 105.238H118.07C118.499 102.611 120.805 101.602 122.629 101.602ZM122.736 99.93C119.116 99.93 115.925 102.08 115.925 106.671C115.925 111.263 119.116 113.413 122.736 113.413C124.801 113.413 126.356 112.961 127.643 112.404V110.44C126.222 111.289 124.291 111.661 122.897 111.661C120.162 111.661 117.99 110.122 117.99 106.724H128.716C128.716 102.637 126.141 99.93 122.736 99.93Z" fill="#5FB5C1"/>
<path d="M124.687 0.00952148C137.786 0.266263 150.235 6.19782 155.601 19.9875C157.201 24.0979 158 28.5322 158 32.9443C158 37.3566 157.201 41.7909 155.601 45.9011C151.421 56.6427 144.232 64.679 126.96 65.0344C109.689 65.3898 95.8323 56.5936 84.4102 42.1501C84.413 42.1527 87.9653 38.2107 88.2199 37.9317C97.4629 47.819 105.392 57.0345 120.912 59.1362C126.046 52.4021 127.315 50.3108 136.34 53.6603C138.157 54.3348 140.807 54.3505 141.514 53.3547C142.026 52.6344 142.005 51.9909 141.733 50.4911C141.468 49.0347 141.294 48.3192 142.221 47.7873C143.126 47.5502 143.653 46.3798 142.172 45.2045C142.534 45.1937 143.63 44.9911 143.896 44.1452C144.273 43.0215 141.962 41.0155 143.411 40.1869C144.735 39.653 145.549 39.847 146.413 39.3481C148.296 38.2594 146.425 36.9409 145.299 35.0335C144.423 33.5506 143.383 31.8974 143.669 29.1786C143.847 27.4813 144.135 26.0022 143.344 23.1362C140.929 23.364 137.189 22.1521 137.189 22.1521C140.227 22.9055 144.721 22.7297 147.069 18.4772C142.558 17.7648 139.527 12.0634 134.787 9.81293C131.796 8.39251 128.283 7.73639 124.687 7.69041L120.737 3.84958L124.687 0.00952148Z" fill="#66C3D0"/>
<path d="M33.3142 66.2329C32.5449 66.2542 31.7867 66.2561 31.0393 66.2391V66.24L30.9047 66.236L30.8496 66.2346L30.6293 66.228L30.5743 66.2262C30.4645 66.2224 30.3549 66.2185 30.2454 66.214L30.1907 66.2117L30.136 66.2093L30.0815 66.2068L30.0269 66.2043C17.0914 65.6078 7.54387 59.1231 2.39874 45.9012C-0.79966 37.6823 -0.799502 28.2066 2.39874 19.9876C5.57993 11.8128 11.8729 5.17761 21.2705 2.33802C24.4376 1.38167 27.7316 0.92275 31.0393 0.854473C50.6737 0.450265 62.1675 9.29545 73.59 23.7391C73.5762 23.7241 69.9308 27.7885 69.7799 27.957C69.7883 27.9478 69.7867 27.9472 69.7771 27.9539C68.4377 26.4995 67.1508 25.1074 65.8754 23.7821C58.1183 15.5835 50.3923 8.55406 37.0879 6.75251C25.104 4.82796 16.1175 10.3037 15.226 14.2781C13.8715 20.3171 13.8672 21.2136 13.4774 21.9525C13.0601 22.7433 11.0802 23.5756 7.38777 24.5896C5.36726 25.1444 4.93734 25.3486 5.18192 25.5799C5.64692 26.0194 8.92353 25.9497 10.1725 25.9487C11.9726 25.9472 15.1936 26.0904 17.5949 25.9988L12.3267 27.3745C12.1434 28.4225 12.3035 29.0038 12.9728 29.5448C14.095 30.4521 14.2475 30.3422 13.1006 32.5099C11.9537 34.6776 9.44635 37.808 9.44635 38.8748C9.44635 39.9436 10.8115 40.959 11.9011 40.7788C13.6433 40.4906 14.7052 39.7679 14.6217 41.4764C14.5532 42.873 13.8462 43.7807 14.3399 44.2815C14.8337 44.7824 15.5487 44.9235 15.5487 44.9235C15.5487 44.9235 14.4973 45.5741 14.4709 45.7858C14.4445 45.9975 14.6766 46.7596 15.3529 47.1507C16.0291 47.5419 16.183 48.6125 16.1331 49.5434C16.0942 50.2694 14.8631 50.9975 14.6766 52.0912C14.4902 53.1849 16.0999 56.4891 19.6484 56.0553C23.197 55.6215 25.3041 55.1609 26.5565 54.7794C27.809 54.398 28.4952 54.5732 29.5058 55.9719C30.4688 57.3052 30.9896 58.753 31.0362 58.8469H34.592L37.2642 62.3357L33.3128 66.2329H33.3142Z" fill="#E31E24"/>
<path fill-rule="evenodd" clip-rule="evenodd" d="M70.1661 32.9444C61.8409 42.2229 52.1659 58.0123 35.4549 58.8469H34.5919H34.5178H34.4301H34.3399H34.2475H34.153H34.0568H33.959H33.8596H33.7591H33.6577H33.5553H33.4524H33.3491H33.2455H33.142H33.0386H32.9358H32.8334H32.732H32.6315H32.5321H32.4343H32.3381H32.2436H32.1511H32.0609H31.9732H31.8881H31.8058H31.7266H31.6506H31.5779H31.509H31.4439H31.3829H31.3261H31.2738H31.226H31.1832H31.1453H31.1128H31.0857H31.0644H31.0488H31.0393H31.0361L31.0393 66.2401L33.3128 66.2329C37.0359 66.1297 41.0107 65.5833 45.2159 64.6115C65.922 59.8263 81.3585 40.7408 87.8334 32.9444L78.9997 29.0474L70.1661 32.9444Z" fill="url(#paint0_linear)"/>
<path fill-rule="evenodd" clip-rule="evenodd" d="M70.166 32.9443L78.9997 36.8416L87.8333 32.9443C93.9522 26.1248 100.594 16.0199 110.557 10.5433C114.668 8.71114 119.755 7.62727 124.687 7.6904V0.0087388C120.719 -0.0690475 116.691 0.373974 112.783 1.27732C88.1811 6.9629 76.6409 25.1484 70.166 32.9443Z" fill="url(#paint1_linear)"/>
<defs>
<linearGradient id="paint0_linear" x1="33.2677" y1="57.9878" x2="69.105" y2="32.4907" gradientUnits="userSpaceOnUse">
<stop stop-color="#E31E24"/>
<stop offset="1" stop-color="#5B5B5B"/>
</linearGradient>
<linearGradient id="paint1_linear" x1="124.687" y1="8.60015" x2="88.1425" y2="33.3999" gradientUnits="userSpaceOnUse">
<stop stop-color="#66C3D0"/>
<stop offset="1" stop-color="#5B5B5B"/>
</linearGradient>
</defs>
</svg>
