<svg width="86" height="86" viewBox="0 0 86 86" fill="none" xmlns="http://www.w3.org/2000/svg">
<path d="M26.2919 36.0041C25.9995 35.7572 25.6213 35.6094 25.2096 35.6094C24.2819 35.6094 23.5289 36.3619 23.5289 37.2891C23.5289 37.8702 23.8247 38.3825 24.2735 38.6832C24.5407 38.8646 24.8634 38.9687 25.2096 38.9687C26.1373 38.9687 26.8902 38.2162 26.8902 37.2891C26.8902 36.7734 26.6583 36.3132 26.2919 36.0041Z" fill="#E31E25"/>
<path d="M85.9045 12.9989C85.6902 12.3905 85.1462 11.9585 84.5049 11.8873L75.1457 10.8481L74.1059 1.49424C74.0345 0.851758 73.6005 0.307372 72.99 0.0940512C72.3796 -0.119101 71.7008 0.0366059 71.2443 0.494657C71.0401 0.699411 73.1542 -1.4212 57.914 13.8661C52.0719 10.5048 45.449 8.73436 38.6547 8.73436C17.2916 8.73436 0 26.0135 0 47.3672C0 68.718 17.2889 86 38.6547 86C60.0178 86 77.3094 68.7209 77.3094 47.3672C77.3094 40.5767 75.538 33.9577 72.1749 28.1188C84.3956 15.8599 85.4615 14.7906 85.5089 14.7433C85.5018 14.7503 85.48 14.7723 85.5106 14.7416C85.9657 14.2844 86.1189 13.6071 85.9045 12.9989ZM71.1524 5.34895C71.1487 5.35265 71.1367 5.36474 71.1324 5.36911C71.1349 5.36642 71.1411 5.36021 71.1524 5.34895ZM71.1524 5.34895L71.8643 11.7533C70.1292 13.4897 61.645 21.9811 60.8596 22.7671L60.1504 16.3822C70.1961 6.30789 71.1201 5.38137 71.1524 5.34895ZM28.7732 33.6564C29.2283 34.4648 30.253 34.7517 31.0621 34.2969C33.5461 32.9004 35.9586 32.25 38.6547 32.25C42.1195 32.25 45.4088 33.4152 48.0814 35.5558L43.2832 40.358C41.9215 39.4545 40.3252 38.9689 38.6549 38.9689C34.0213 38.9689 30.2517 42.7365 30.2517 47.3674C30.2517 51.9982 34.0213 55.7658 38.6549 55.7658C43.2884 55.7658 47.0581 51.9982 47.0581 47.3674C47.0581 45.693 46.5697 44.094 45.6618 42.7314L50.4597 37.9294C52.61 40.6034 53.7806 43.8968 53.7806 47.3674C53.7806 55.703 46.9952 62.4845 38.6549 62.4845C30.3145 62.4845 23.5291 55.703 23.5291 47.3674C23.5291 45.9228 23.7044 44.8732 23.9678 43.7417C24.178 42.8382 23.6155 41.9354 22.7115 41.7253C21.8078 41.5151 20.9043 42.0773 20.6939 42.9808C20.3203 44.5865 20.1678 45.8573 20.1678 47.3674C20.1678 57.5553 28.4611 65.8439 38.6549 65.8439C48.8486 65.8439 57.1419 57.5553 57.1419 47.3674C57.1419 42.9976 55.6276 38.8572 52.848 35.5388L57.6078 30.7749C62.3693 36.1959 64.5671 43.325 63.6596 50.5871C62.0536 63.1151 51.304 72.5625 38.6547 72.5625C24.7541 72.5625 13.4451 61.2599 13.4451 47.3672C13.4451 33.4745 24.7541 22.1719 38.6547 22.1719C44.8087 22.1719 50.6321 24.3729 55.2305 28.4007L50.4697 33.1653C47.153 30.3981 43.0173 28.8906 38.6547 28.8906C35.403 28.8906 32.3804 29.7012 29.414 31.3688C28.6051 31.8237 28.3181 32.8478 28.7732 33.6564ZM37.467 48.5557C38.1204 49.208 39.1846 49.2137 39.8437 48.5541L43.203 45.1918C43.5259 45.8624 43.6966 46.6016 43.6966 47.3672C43.6966 50.1457 41.4348 52.4062 38.6547 52.4062C35.8746 52.4062 33.6128 50.1457 33.6128 47.3672C33.6128 44.5886 35.8746 42.3281 38.6547 42.3281C39.4179 42.3281 40.1553 42.4976 40.8247 42.8183L37.4653 46.1803C36.8095 46.8367 36.8102 47.9001 37.467 48.5557ZM73.9481 47.3672C73.9481 66.817 58.1155 82.6406 38.6547 82.6406C19.1939 82.6406 3.36128 66.817 3.36128 47.3672C3.36128 27.9174 19.1937 12.0937 38.6547 12.0937C45.0983 12.0937 51.3719 13.8364 56.8521 17.1392L57.816 25.8131L57.6099 26.0192C52.3729 21.3607 45.7056 18.8125 38.6547 18.8125C22.9007 18.8125 10.0838 31.6221 10.0838 47.3672C10.0838 63.1122 22.9007 75.9219 38.6547 75.9219C52.9904 75.9219 65.1733 65.2139 66.9941 51.0086C68.0318 42.7039 65.4876 34.5545 59.9886 28.3916L60.1694 28.2107L68.8995 29.1795C72.2043 34.6568 73.9481 40.9269 73.9481 47.3672ZM69.6576 25.8836L63.2098 25.1679C66.403 21.9725 66.9546 21.4205 66.9874 21.3878C66.9457 21.4296 65.7669 22.6091 74.2419 14.1277L80.669 14.8412C80.4243 15.0868 82.5763 12.9287 69.6576 25.8836Z" fill="#E31E25"/>
</svg>
