<svg width="86" height="86" viewBox="0 0 86 86" fill="none" xmlns="http://www.w3.org/2000/svg">
<path d="M32.9219 17.8047C31.9947 17.8047 31.2422 18.5572 31.2422 19.4844C31.2422 20.4116 31.9947 21.1641 32.9219 21.1641C33.8491 21.1641 34.6016 20.4116 34.6016 19.4844C34.6016 18.5572 33.8491 17.8047 32.9219 17.8047Z" fill="#E31E25"/>
<path d="M32.9219 31.2422C31.9947 31.2422 31.2422 31.9947 31.2422 32.9219C31.2422 33.8491 31.9947 34.6016 32.9219 34.6016C33.8491 34.6016 34.6016 33.8491 34.6016 32.9219C34.6016 31.9947 33.8491 31.2422 32.9219 31.2422Z" fill="#E31E25"/>
<path d="M80.9609 0H5.03906C2.26052 0 0 2.26052 0 5.03906C0 7.2287 1.40439 9.09584 3.35938 9.78922V60.8047C3.35938 63.5832 5.6199 65.8438 8.39844 65.8438H41.3203V76.2108C39.3653 76.9042 37.9609 78.7711 37.9609 80.9609C37.9609 83.7395 40.2215 86 43 86C45.7785 86 48.0391 83.7395 48.0391 80.9609C48.0391 78.7713 46.6347 76.9042 44.6797 76.2108V65.8438H77.6016C80.3801 65.8438 82.6406 63.5832 82.6406 60.8047V9.78922C84.5956 9.09584 86 7.22887 86 5.03906C86 2.26052 83.7395 0 80.9609 0ZM43 82.6406C42.0738 82.6406 41.3203 81.8871 41.3203 80.9609C41.3203 80.0348 42.0738 79.2812 43 79.2812C43.9262 79.2812 44.6797 80.0348 44.6797 80.9609C44.6797 81.8871 43.9262 82.6406 43 82.6406ZM79.2812 60.8047C79.2812 61.7309 78.5277 62.4844 77.6016 62.4844H8.39844C7.47226 62.4844 6.71875 61.7309 6.71875 60.8047V10.0781H79.2812V60.8047ZM80.9609 6.71875H5.03906C4.11288 6.71875 3.35938 5.96524 3.35938 5.03906C3.35938 4.11288 4.11288 3.35938 5.03906 3.35938H80.9609C81.8871 3.35938 82.6406 4.11288 82.6406 5.03906C82.6406 5.96524 81.8871 6.71875 80.9609 6.71875Z" fill="#E31E25"/>
<path d="M26.2031 17.8047H15.1172C14.1897 17.8047 13.4375 18.5567 13.4375 19.4844C13.4375 20.4121 14.1897 21.1641 15.1172 21.1641H26.2031C27.1306 21.1641 27.8828 20.4121 27.8828 19.4844C27.8828 18.5567 27.1306 17.8047 26.2031 17.8047Z" fill="#E31E25"/>
<path d="M32.9219 24.5234H15.1172C14.1897 24.5234 13.4375 25.2754 13.4375 26.2031C13.4375 27.1308 14.1897 27.8828 15.1172 27.8828H32.9219C33.8494 27.8828 34.6016 27.1308 34.6016 26.2031C34.6016 25.2754 33.8494 24.5234 32.9219 24.5234Z" fill="#E31E25"/>
<path d="M26.2031 31.2422H15.1172C14.1897 31.2422 13.4375 31.9942 13.4375 32.9219C13.4375 33.8496 14.1897 34.6016 15.1172 34.6016H26.2031C27.1306 34.6016 27.8828 33.8496 27.8828 32.9219C27.8828 31.9942 27.1306 31.2422 26.2031 31.2422Z" fill="#E31E25"/>
<path d="M32.9219 37.9609H15.1172C14.1897 37.9609 13.4375 38.7129 13.4375 39.6406C13.4375 40.5683 14.1897 41.3203 15.1172 41.3203H32.9219C33.8494 41.3203 34.6016 40.5683 34.6016 39.6406C34.6016 38.7129 33.8494 37.9609 32.9219 37.9609Z" fill="#E31E25"/>
<path d="M32.9219 44.6797H15.1172C14.1897 44.6797 13.4375 45.4317 13.4375 46.3594C13.4375 47.2871 14.1897 48.0391 15.1172 48.0391H32.9219C33.8494 48.0391 34.6016 47.2871 34.6016 46.3594C34.6016 45.4317 33.8494 44.6797 32.9219 44.6797Z" fill="#E31E25"/>
<path d="M69.875 51.3984H15.1172C14.1897 51.3984 13.4375 52.1504 13.4375 53.0781C13.4375 54.0058 14.1897 54.7578 15.1172 54.7578H69.875C70.8025 54.7578 71.5547 54.0058 71.5547 53.0781C71.5547 52.1504 70.8025 51.3984 69.875 51.3984Z" fill="#E31E25"/>
<path d="M56.4375 17.8047C48.029 17.8047 41.3203 24.6333 41.3203 32.9219C41.3203 41.2575 48.1019 48.0391 56.4375 48.0391C64.7731 48.0391 71.5547 41.2575 71.5547 32.9219C71.5547 24.5863 64.7731 17.8047 56.4375 17.8047ZM58.1172 21.286C63.2584 22.0249 67.3345 26.1008 68.0734 31.2422H58.1172V21.286ZM56.4375 44.6797C49.9542 44.6797 44.6797 39.4051 44.6797 32.9219C44.6797 27.0304 49.0185 22.1101 54.7578 21.2853V32.9219C54.7578 33.8496 55.51 34.6016 56.4375 34.6016H68.0734C67.2557 40.2918 62.3503 44.6797 56.4375 44.6797Z" fill="#E31E25"/>
</svg>
