<svg width="24" height="24" viewBox="0 0 24 24" fill="none" xmlns="http://www.w3.org/2000/svg">
<path fill-rule="evenodd" clip-rule="evenodd" d="M16.7245 9.36543L11.6997 15.9654C11.4929 16.2371 11.1728 16.3977 10.8318 16.3999H10.8241C10.4864 16.3999 10.1674 16.2437 9.95839 15.9775L7.28319 12.5598C6.90919 12.0824 6.99279 11.3905 7.47129 11.0165C7.94869 10.6414 8.64169 10.725 9.01569 11.2046L10.812 13.4992L14.9744 8.03334C15.3418 7.55044 16.0315 7.45583 16.5166 7.82434C16.9995 8.19283 17.093 8.88253 16.7245 9.36543ZM12 1C5.9247 1 1 5.9247 1 12C1 18.0742 5.9247 23 12 23C18.0753 23 23 18.0742 23 12C23 5.9247 18.0753 1 12 1Z" stroke="#E31E25" stroke-width="2"/>
</svg>
