<svg width="24" height="24" viewBox="0 0 24 24" fill="none" xmlns="http://www.w3.org/2000/svg">
<path fill-rule="evenodd" clip-rule="evenodd" d="M13.1 13.1C13.1 13.7072 12.6072 14.2 12 14.2C11.3928 14.2 10.9 13.7072 10.9 13.1V7.6C10.9 6.9928 11.3928 6.5 12 6.5C12.6072 6.5 13.1 6.9928 13.1 7.6V13.1ZM12 17.5C11.3928 17.5 10.9 17.0072 10.9 16.4C10.9 15.7928 11.3928 15.3 12 15.3C12.6072 15.3 13.1 15.7928 13.1 16.4C13.1 17.0072 12.6072 17.5 12 17.5ZM12 1C5.9247 1 1 5.9247 1 12C1 18.0753 5.9247 23 12 23C18.0753 23 23 18.0753 23 12C23 5.9247 18.0753 1 12 1Z" stroke="#E31E25" stroke-width="1.5"/>
</svg>
